<svg width="238" height="170" viewBox="0 0 238 170" fill="none" xmlns="http://www.w3.org/2000/svg">
<path d="M101.921 144.21C103.972 104.493 106.022 64.8782 108.073 25.1612C108.175 23.9391 108.278 22.6152 108.278 21.3931C108.278 21.1894 108.278 20.7821 108.278 20.5784C107.97 21.9023 107.868 21.3931 108.995 20.4766C113.301 16.9122 117.197 12.635 121.298 8.76513C120.58 8.76513 119.863 8.76513 119.145 8.76513C122.733 12.4313 126.321 16.1993 129.91 19.8655C130.627 20.6802 131.345 21.495 132.165 22.2078C133.395 23.2262 132.37 22.0042 132.37 22.2078C132.985 25.1611 132.883 28.42 133.088 31.3733C133.498 36.8726 134.011 42.3719 134.421 47.8712C136.471 73.3308 138.624 98.8923 140.675 124.352C141.29 131.583 141.905 138.915 142.417 146.145C142.93 145.636 143.443 145.127 143.955 144.618C129.397 143.905 114.839 143.192 100.178 142.479C98.2305 142.377 98.2305 145.433 100.178 145.534C114.737 146.247 129.295 146.96 143.955 147.673C144.775 147.673 145.596 146.96 145.493 146.145C142.417 108.363 139.342 70.683 136.164 32.9009C135.753 28.3181 136.676 22.6152 133.395 19.2545C129.295 14.9773 125.194 10.8019 121.093 6.52468C120.478 5.91365 119.555 5.91365 118.94 6.52468C115.147 10.089 111.353 13.7552 107.56 17.3196C105.715 19.0508 105.099 19.6619 104.894 22.0041C104.177 31.2715 103.972 40.6406 103.459 50.0098C102.331 72.6179 101.101 95.2261 99.9734 117.834C99.5633 126.592 99.0507 135.249 98.6406 144.007C98.7431 146.145 101.819 146.145 101.921 144.21Z" fill="white"/>
<path d="M107.252 22.7159C110.123 19.8644 112.994 17.013 115.864 14.1615C116.377 13.6523 115.557 12.9394 115.147 13.4486C112.276 16.3001 109.405 19.1516 106.535 22.0031C106.022 22.4104 106.74 23.1233 107.252 22.7159Z" fill="white"/>
<path d="M107.457 24.147C115.556 24.147 123.758 24.147 131.857 24.147C133.805 24.147 133.805 21.0918 131.857 21.0918C123.758 21.0918 115.556 21.0918 107.457 21.0918C105.509 21.0918 105.509 24.147 107.457 24.147Z" fill="white"/>
<path d="M107.15 44.7173C116.377 44.7173 125.707 44.7173 134.934 44.7173C136.882 44.7173 136.882 41.6621 134.934 41.6621C125.707 41.6621 116.377 41.6621 107.15 41.6621C105.202 41.6621 105.202 44.7173 107.15 44.7173Z" fill="white"/>
<path d="M106.843 68.9536C116.992 68.9536 127.245 68.9536 137.394 68.9536C139.342 68.9536 139.342 65.8984 137.394 65.8984C127.245 65.8984 116.992 65.8984 106.843 65.8984C104.895 65.8984 104.895 68.9536 106.843 68.9536Z" fill="white"/>
<path d="M104.074 95.0259C115.454 95.0259 126.937 95.0259 138.316 95.0259C140.264 95.0259 140.264 91.9707 138.316 91.9707C126.937 91.9707 115.454 91.9707 104.074 91.9707C102.126 91.9707 102.126 95.0259 104.074 95.0259Z" fill="white"/>
<path d="M103.15 119.264C115.453 119.264 127.653 119.264 139.956 119.264C141.904 119.264 141.904 116.209 139.956 116.209C127.653 116.209 115.453 116.209 103.15 116.209C101.202 116.209 101.202 119.264 103.15 119.264Z" fill="white"/>
<path d="M100.793 134.943C103.356 138.915 106.739 142.173 110.225 145.33C111.66 146.654 113.813 144.516 112.378 143.192C109.097 140.137 105.919 137.183 103.459 133.415C102.433 131.786 99.7679 133.314 100.793 134.943Z" fill="white"/>
<path d="M102.331 124.863C107.56 132.704 113.608 139.833 120.477 146.351C121.913 147.675 124.066 145.536 122.63 144.212C115.966 137.898 110.123 130.973 104.997 123.335C103.869 121.706 101.203 123.233 102.331 124.863Z" fill="white"/>
<path d="M107.457 120.279C115.454 129.037 123.553 137.795 131.858 146.451C133.19 147.877 135.343 145.738 134.011 144.313C125.809 135.656 117.71 127 109.61 118.14C108.278 116.714 106.125 118.853 107.457 120.279Z" fill="white"/>
<path d="M117.504 119.467C125.193 127.92 132.883 136.271 140.572 144.723C141.905 146.149 144.057 144.01 142.725 142.585C135.036 134.132 127.346 125.781 119.657 117.329C118.325 115.801 116.172 118.041 117.504 119.467Z" fill="white"/>
<path d="M127.653 119.569C132.369 124.457 136.88 129.447 141.493 134.437C142.826 135.863 144.979 133.724 143.646 132.299C139.135 127.308 134.522 122.318 129.806 117.43C128.473 115.903 126.32 118.143 127.653 119.569Z" fill="white"/>
<path d="M133.702 118.754C136.368 121.199 138.726 123.846 140.571 126.901C141.596 128.531 144.262 127.003 143.237 125.374C141.186 122.115 138.726 119.162 135.855 116.616C134.42 115.292 132.164 117.43 133.702 118.754Z" fill="white"/>
<path d="M102.741 86.3687C104.587 89.0165 106.74 91.3588 109.098 93.4974C110.533 94.8213 112.788 92.6827 111.251 91.3588C109.098 89.4239 107.047 87.2853 105.407 84.8411C104.279 83.2117 101.613 84.7393 102.741 86.3687Z" fill="white"/>
<path d="M103.766 77.7125C107.661 83.5173 111.865 89.0166 116.478 94.1085C117.811 95.6361 119.964 93.3956 118.631 91.9699C114.223 86.9798 110.122 81.6842 106.431 76.1849C105.303 74.5555 102.638 76.0831 103.766 77.7125Z" fill="white"/>
<path d="M106.229 69.6664C113.508 77.6098 120.582 85.7569 127.451 94.0058C128.681 95.5334 130.834 93.3948 129.604 91.8672C122.735 83.5165 115.661 75.4712 108.382 67.5278C107.049 66.0002 104.896 68.2407 106.229 69.6664Z" fill="white"/>
<path d="M116.993 69.2597C119.453 70.7873 121.196 74.2498 122.939 76.4902C124.682 78.7307 126.322 80.9711 128.065 83.2116C130.833 86.8778 133.601 90.3403 137.6 92.7844C139.24 93.9046 140.778 91.2568 139.137 90.1366C133.806 86.7759 130.32 81.1748 126.63 76.1847C124.272 73.0277 122.016 68.6486 118.53 66.51C116.89 65.5935 115.25 68.2413 116.993 69.2597Z" fill="white"/>
<path d="M124.988 68.7514C129.396 73.2323 134.01 77.5095 138.111 82.2959C139.443 83.8235 141.596 81.583 140.263 80.1573C136.163 75.3709 131.549 71.0937 127.141 66.6128C125.808 65.187 123.655 67.3256 124.988 68.7514Z" fill="white"/>
<path d="M105.817 35.3459C107.97 38.2992 110.328 40.947 113.096 43.3911C114.532 44.715 116.787 42.5764 115.249 41.2525C112.686 39.0121 110.431 36.5679 108.483 33.8183C107.355 32.2907 104.69 33.8183 105.817 35.3459Z" fill="white"/>
<path d="M107.149 24.2462C112.582 31.1712 118.631 37.4852 125.295 43.29C126.73 44.6139 128.986 42.4753 127.448 41.1514C120.784 35.3466 114.735 29.0326 109.302 22.1076C108.071 20.58 105.918 22.7186 107.149 24.2462Z" fill="white"/>
<path d="M117.812 23.5335C121.298 30.2548 127.654 34.5321 132.063 40.6424C133.191 42.2718 135.856 40.7442 134.728 39.1148C130.423 33.1063 123.964 28.7272 120.478 22.0059C119.555 20.1728 116.89 21.8022 117.812 23.5335Z" fill="white"/>
<path d="M125.81 24.351C128.271 27.1006 130.834 29.8503 133.294 32.5999C134.627 34.0256 136.78 31.887 135.447 30.4613C132.987 27.7117 130.424 24.962 127.963 22.2124C126.733 20.7866 124.477 22.9252 125.81 24.351Z" fill="white"/>
<path d="M119.659 63.1463C124.245 63.1463 127.963 59.4531 127.963 54.8974C127.963 50.3416 124.245 46.6484 119.659 46.6484C115.072 46.6484 111.354 50.3416 111.354 54.8974C111.354 59.4531 115.072 63.1463 119.659 63.1463Z" stroke="white" stroke-width="2" stroke-miterlimit="10"/>
<path d="M121.092 112.743C124.942 112.743 128.063 109.642 128.063 105.818C128.063 101.993 124.942 98.8926 121.092 98.8926C117.241 98.8926 114.12 101.993 114.12 105.818C114.12 109.642 117.241 112.743 121.092 112.743Z" stroke="white" stroke-width="2" stroke-miterlimit="10"/>
<path d="M66.5513 2.55519C71.6773 6.83241 76.8034 11.2115 81.9295 15.4887C83.4673 16.7108 85.6203 14.5721 84.0825 13.3501C78.9564 9.07286 73.8303 4.6938 68.7042 0.416579C67.2689 -0.907323 65.0134 1.23129 66.5513 2.55519Z" fill="white"/>
<path d="M60.5035 22.2093C66.2447 23.8388 71.9859 25.2645 77.7271 26.5884C79.675 26.9958 80.4952 24.0424 78.5473 23.6351C72.8061 22.3112 67.0648 20.8854 61.3236 19.256C59.3757 18.7468 58.5555 21.7002 60.5035 22.2093Z" fill="white"/>
<path d="M61.9374 47.2631C67.371 43.6988 72.9072 40.5418 78.7509 37.6903C80.4938 36.8756 78.956 34.2278 77.2131 35.0425C71.3693 37.894 65.8332 41.051 60.3995 44.6153C58.7592 45.7356 60.297 48.3834 61.9374 47.2631Z" fill="white"/>
<path d="M155.848 12.0265C159.847 9.3787 164.05 7.44377 168.766 6.42538C170.714 6.01803 169.894 3.0647 167.946 3.47206C163.025 4.59228 158.412 6.52722 154.311 9.3787C152.67 10.3971 154.208 13.0449 155.848 12.0265Z" fill="white"/>
<path d="M156.874 26.0786C161.795 26.5878 166.511 27.4025 171.33 28.7264C173.278 29.2356 174.098 26.2823 172.15 25.7731C167.126 24.4492 162.103 23.5326 156.874 23.0234C154.926 22.8197 154.926 25.8749 156.874 26.0786Z" fill="white"/>
<path d="M152.363 41.2516C156.976 43.6957 161.59 45.9362 166.408 47.8711C168.254 48.584 169.074 45.6307 167.228 44.9178C162.615 43.0847 158.207 40.9461 153.901 38.6038C152.26 37.6873 150.62 40.2332 152.363 41.2516Z" fill="white"/>
<path d="M15.7008 148.795C76.1886 142.685 137.702 141.565 197.267 155.517C210.595 158.674 223.717 162.442 236.738 166.617C237.968 167.024 238.583 165.089 237.25 164.682C185.579 147.981 132.473 141.157 78.239 142.685C57.3246 143.194 36.5127 144.824 15.7008 146.86C14.368 146.962 14.368 148.999 15.7008 148.795Z" fill="white"/>
<path d="M18.1623 151.747C62.0417 133.212 110.329 153.274 155.747 145.127C157.079 144.924 156.464 142.887 155.234 143.192C109.509 151.441 61.4265 131.379 17.1371 150.015C15.9069 150.423 17.0346 152.256 18.1623 151.747Z" fill="white"/>
<path d="M1.44988 166.615C29.4383 147.979 64.0907 150.626 96.0775 153.478C97.4102 153.58 97.4102 151.543 96.0775 151.441C63.7831 148.59 28.7207 146.044 0.424659 164.884C-0.600559 165.597 0.424659 167.43 1.44988 166.615Z" fill="white"/>
<path d="M171.432 146.858C189.271 150.423 206.495 156.125 223.001 163.967C224.231 164.578 225.256 162.745 224.026 162.236C207.417 154.394 189.989 148.589 171.945 144.923C170.715 144.618 170.1 146.553 171.432 146.858Z" fill="white"/>
<path d="M105.715 154.7C109.816 154.191 113.814 154.598 117.71 155.82C118.941 156.228 119.556 154.293 118.223 153.885C114.122 152.561 109.919 152.154 105.613 152.663C104.485 152.765 104.485 154.802 105.715 154.7Z" fill="white"/>
<path d="M130.321 157.148C131.654 157.148 131.654 155.111 130.321 155.111C128.988 155.111 128.988 157.148 130.321 157.148Z" fill="white"/>
<path d="M11.1893 169.877C14.675 168.146 18.2633 166.822 21.954 165.702C23.1843 165.295 22.6717 163.36 21.4414 163.767C17.5456 164.887 13.7523 166.415 10.164 168.146C9.0363 168.655 10.0615 170.488 11.1893 169.877Z" fill="white"/>
<path d="M31.3885 162.951C31.7986 162.951 32.2088 162.951 32.7215 162.951C34.0545 162.951 34.0545 160.914 32.7215 160.914C32.3113 160.914 31.9012 160.914 31.3885 160.914C30.0554 160.914 30.0554 162.951 31.3885 162.951Z" fill="white"/>
<path d="M43.6892 160.406C44.0994 160.406 44.5096 160.406 45.0223 160.406C46.3553 160.406 46.3553 158.369 45.0223 158.369C44.6121 158.369 44.2019 158.369 43.6892 158.369C42.3562 158.369 42.3562 160.406 43.6892 160.406Z" fill="white"/>
<path d="M55.6846 159.998C55.6846 159.795 55.6846 159.591 55.6846 159.387C55.6846 158.064 53.6338 158.064 53.6338 159.387C53.6338 159.591 53.6338 159.795 53.6338 159.998C53.6338 161.322 55.6846 161.322 55.6846 159.998Z" fill="white"/>
<path d="M63.6817 161.015C63.8868 161.015 64.0918 161.015 64.2969 161.015C65.63 161.015 65.63 158.979 64.2969 158.979C64.0918 158.979 63.8868 158.979 63.6817 158.979C62.4512 158.979 62.4512 161.015 63.6817 161.015Z" fill="white"/>
<path d="M163.948 145.636C165.281 145.636 165.281 143.6 163.948 143.6C162.615 143.6 162.615 145.636 163.948 145.636Z" fill="white"/>
</svg>
