<?xml version="1.0" encoding="UTF-8" standalone="no"?>
<svg
   xmlns:dc="http://purl.org/dc/elements/1.1/"
   xmlns:cc="http://creativecommons.org/ns#"
   xmlns:rdf="http://www.w3.org/1999/02/22-rdf-syntax-ns#"
   xmlns:svg="http://www.w3.org/2000/svg"
   xmlns="http://www.w3.org/2000/svg"
   viewBox="0 0 312.09332 70.973335"
   height="70.973335"
   width="312.09332"
   xml:space="preserve"
   id="svg2"
   version="1.1"><metadata
     id="metadata8"><rdf:RDF><cc:Work
         rdf:about=""><dc:format>image/svg+xml</dc:format><dc:type
           rdf:resource="http://purl.org/dc/dcmitype/StillImage" /></cc:Work></rdf:RDF></metadata><defs
     id="defs6" /><g
     transform="matrix(1.3333333,0,0,-1.3333333,0,70.973333)"
     id="g10"><g
       transform="scale(0.1)"
       id="g12"><path
         id="path14"
         style="fill:#6f319a;fill-opacity:1;fill-rule:nonzero;stroke:none"
         d="m 915.57,354.613 h 0.254 c 27.293,0 48.028,19.946 48.028,43.563 0,23.625 -20.735,43.57 -48.028,43.57 v 29.918 c 45.664,0 83.192,-32.281 83.192,-73.488 0,-41.199 -37.528,-73.481 -83.192,-73.481 z m 0.254,-61.418 H 881.691 V 482.43 h 34.133 z m 0,189.235 h -49.863 v 28.863 h 49.863 z M 881.691,324.695 c -45.664,0 -83.191,32.282 -83.191,73.481 0,41.207 37.527,73.488 83.191,73.488 v -29.918 c -27.273,0 -48.027,-19.945 -48.027,-43.57 0,-23.617 20.754,-43.563 48.027,-43.563 h 0.286 l -0.286,-29.918" /><path
         id="path16"
         style="fill:#6f319a;fill-opacity:1;fill-rule:nonzero;stroke:none"
         d="m 1083.41,319.445 c 21.79,0 37.27,17.582 37.27,39.368 0,21.781 -15.48,39.363 -37.27,39.363 -22.05,0 -37.25,-17.582 -37.25,-39.363 0,-21.786 15.2,-39.368 37.25,-39.368 z m 0,107.61 c 38.84,0 71.13,-29.399 71.39,-68.242 0.26,-38.844 -32.55,-68.239 -71.39,-68.239 -38.85,0 -71.39,29.395 -71.39,68.239 0,38.843 32.54,68.242 71.39,68.242" /><path
         id="path18"
         style="fill:#6f319a;fill-opacity:1;fill-rule:nonzero;stroke:none"
         d="m 1272.81,322.07 h 49.87 v -28.875 h -49.87 z m 0,102.356 h 34.12 V 322.07 h -34.12 z m -58.79,-81.356 v 28.86 h 58.79 v -28.86 z m 0,-49.875 h -34.13 v 102.36 h 34.13 z m 0,102.36 h -49.87 v 28.871 h 49.87 v -28.871" /><path
         id="path20"
         style="fill:#6f319a;fill-opacity:1;fill-rule:nonzero;stroke:none"
         d="m 1457.74,319.445 h 34.12 v -55.121 h -34.12 z m -24.14,104.981 h 34.11 V 322.07 h -34.11 z m -88.98,0 h 123.36 v -28.871 h -123.36 z m 6.31,-102.356 c 7.08,17.586 12.59,35.692 13.63,50.395 l 1.58,51.961 h 33.34 l -1.58,-52.496 c -0.53,-24.407 -6.57,-40.418 -11.8,-49.86 l -47.78,-28.875 z m -16.54,-2.625 h 34.13 v -55.121 h -34.13 z m 0,2.625 h 157.47 v -28.875 h -157.47 v 28.875" /><path
         id="path22"
         style="fill:#6f319a;fill-opacity:1;fill-rule:nonzero;stroke:none"
         d="m 929.477,30.8867 v 28.8711 h 34.375 V 30.8867 Z m -65.879,94.4843 h 39.363 l 60.363,-94.4843 h -39.355 z m 57.734,89.242 h 39.375 L 902.961,125.371 H 863.598 Z M 895.617,125.371 H 856.242 L 798.5,214.613 h 39.375 z m -97.91,60.363 v 28.879 h 34.387 V 185.734 Z M 835.238,30.8867 h -39.355 l 60.359,94.4843 h 39.375 L 835.238,30.8867" /><path
         id="path24"
         style="fill:#6f319a;fill-opacity:1;fill-rule:nonzero;stroke:none"
         d="m 1077.91,59.7578 h 49.87 V 30.8867 h -49.87 z m 0,102.3592 h 34.13 V 59.7578 h -34.13 z m -16,-109.1795 h 22.58 v -8.3984 h -22.58 z m 0,94.4885 h 22.58 v -8.399 h -22.58 z m -21.26,-90.2854 c 21.78,0 37.26,17.5899 37.26,39.3594 0,21.793 -15.48,39.375 -37.26,39.375 -22.05,0 -37.28,-17.582 -37.28,-39.375 0,-21.7695 15.23,-39.3594 37.28,-39.3594 z m -7.87,107.6054 c 38.84,0 58,-29.402 58.26,-68.246 0.25,-38.8477 -19.42,-68.2305 -58.26,-68.2305 -38.85,0 -63.51,29.3828 -63.51,68.2305 0,38.844 24.66,68.246 63.51,68.246" /><path
         id="path26"
         style="fill:#6f319a;fill-opacity:1;fill-rule:nonzero;stroke:none"
         d="m 1210.88,57.1406 c 21.8,0 35.96,14.9532 35.96,36.7422 0,21.7732 -15.48,36.7462 -37.28,36.7462 -18.87,0 -31.23,-10.504 -37.24,-21.008 0,-29.6444 12.59,-52.4804 38.56,-52.4804 z m -51.71,86.6014 h 17.34 v -11.543 h -17.34 z m -6.29,-23.617 c 15.23,25.195 33.85,39.375 61.94,39.375 38.84,0 65.89,-26.773 66.14,-65.6172 0.26,-38.8476 -31.23,-65.6133 -70.08,-65.6133 -44.09,0 -72.69,34.9102 -72.69,81.3515 2.61,4.996 7.34,10.504 14.69,10.504 z m 121.25,101.566 c -17.05,-27.3 -37.01,-29.128 -61.14,-35.699 -29.4,-8.125 -43.31,-23.09 -43.31,-76.371 h -31.49 c 0,67.715 25.19,94.742 64.04,105.777 27.81,7.868 40.93,16.54 48.82,25.45 l 23.08,-19.157" /><path
         id="path28"
         style="fill:#6f319a;fill-opacity:1;fill-rule:nonzero;stroke:none"
         d="m 1331.52,109.621 h 68.23 c -4.19,15.219 -15.73,26.254 -32.8,26.254 -17.32,0 -30.71,-11.035 -35.43,-26.254 z m 104.19,-22.3046 h -105.24 c 3.66,-17.3281 17.59,-30.1758 36.48,-30.1758 22.31,0 31.75,11.0157 36.22,18.6289 l 26.77,-17.582 c -13.12,-15.2266 -27.83,-29.918 -62.99,-29.918 -38.85,0 -71.39,29.3828 -71.39,68.2305 0,38.844 32.54,68.246 71.39,68.246 38.83,0 68.5,-29.402 68.76,-68.246 v -9.1836" /><path
         id="path30"
         style="fill:#6f319a;fill-opacity:1;fill-rule:nonzero;stroke:none"
         d="m 1549.53,59.7578 h 49.88 V 30.8867 h -49.88 z m 0,102.3592 h 34.13 V 59.7578 h -34.13 z m -58.79,-81.3514 v 28.8554 h 58.79 V 80.7656 Z m 0,-49.8789 h -34.13 V 133.238 h 34.13 z m 0,102.3513 h -49.86 v 28.879 h 49.86 v -28.879" /><path
         id="path32"
         style="fill:#6f319a;fill-opacity:1;fill-rule:nonzero;stroke:none"
         d="m 1711.12,124.055 h 34.12 v -21.774 h -34.12 z m -31.23,40.691 c 28.86,0 54.06,-16.281 65.35,-40.691 l -32.28,-9.184 c -6.03,12.606 -18.11,21.004 -33.07,21.004 -22.04,0 -37.26,-17.582 -37.26,-39.375 0,-21.7695 15.22,-39.3594 37.26,-39.3594 14.96,0 27.04,8.3985 33.07,20.7305 l 32.28,-9.1836 c -11.02,-24.4102 -36.49,-40.418 -65.35,-40.418 -38.83,0 -71.39,29.3828 -71.39,68.2305 0,38.844 32.56,68.246 71.39,68.246" /><path
         id="path34"
         style="fill:#6f319a;fill-opacity:1;fill-rule:nonzero;stroke:none"
         d="m 1824.13,99.1328 h 36.75 l 41.99,-68.2461 h -36.74 z m 39.39,62.9842 h 36.74 l -39.38,-62.9842 h -36.75 z m -56.18,-76.1209 v 28.8749 h 34.38 V 85.9961 Z m 0,-55.1094 h -34.1 V 133.238 h 34.1 z m 0,102.3513 h -49.86 v 28.879 h 49.86 v -28.879" /><path
         id="path36"
         style="fill:#6f319a;fill-opacity:1;fill-rule:nonzero;stroke:none"
         d="m 1974.17,57.1406 c 21.8,0 37.28,17.5899 37.28,39.3594 0,21.793 -15.48,39.375 -37.28,39.375 -22.03,0 -37.24,-17.582 -37.24,-39.375 0,-21.7695 15.21,-39.3594 37.24,-39.3594 z m 0,107.6054 c 38.85,0 71.15,-29.402 71.4,-68.246 0.26,-38.8477 -32.55,-68.2305 -71.4,-68.2305 -38.83,0 -71.37,29.3828 -71.37,68.2305 0,38.844 32.54,68.246 71.37,68.246" /><path
         id="path38"
         style="fill:#6f319a;fill-opacity:1;fill-rule:nonzero;stroke:none"
         d="m 2153.34,133.238 h 31.5 V 99.3906 h -31.5 z m -78.73,0 h 34.12 V 30.8867 h -34.12 z m -18.37,28.879 h 128.6 v -28.879 h -128.6 v 28.879" /><path
         id="path40"
         style="fill:#6f319a;fill-opacity:1;fill-rule:nonzero;stroke:none"
         d="m 2269.26,57.1406 c 21.79,0 37.27,17.5899 37.27,39.3594 0,21.793 -15.48,39.375 -37.27,39.375 -22.05,0 -37.26,-17.582 -37.26,-39.375 0,-21.7695 15.21,-39.3594 37.26,-39.3594 z m 0,107.6054 c 38.84,0 71.13,-29.402 71.4,-68.246 0.25,-38.8477 -32.56,-68.2305 -71.4,-68.2305 -38.85,0 -71.38,29.3828 -71.38,68.2305 0,38.844 32.53,68.246 71.38,68.246" /><path
         id="path42"
         style="fill:#6f329a;fill-opacity:1;fill-rule:nonzero;stroke:none"
         d="m 111.156,178.586 c 0,1.301 0.203,2.543 0.508,3.754 l -81.3085,-1.156 65.5859,76.464 9.7856,11.407 -3.02,2.59 -3.0078,2.582 -9.8125,-11.446 -70.1094,-81.75 -10.93746,-0.156 0.10938,-7.934 3.93358,0.055 -0.3984,-0.465 6.0156,-5.172 4.9609,5.789 88.3401,1.254 c -0.383,1.34 -0.645,2.723 -0.645,4.184" /><path
         id="path44"
         style="fill:#6f329a;fill-opacity:1;fill-rule:nonzero;stroke:none"
         d="m 102.707,256.035 c -0.019,0 -0.039,0.008 -0.066,0.008 l 16.523,-63.91 c 2.254,1.269 4.824,2.055 7.598,2.055 0.027,0 0.047,-0.004 0.066,-0.004 l -16.512,63.914 c -2.265,-1.274 -4.836,-2.063 -7.609,-2.063" /><path
         id="path46"
         style="fill:none;stroke:#ffffff;stroke-width:2.83465004;stroke-linecap:round;stroke-linejoin:round;stroke-miterlimit:4;stroke-dasharray:none;stroke-opacity:1"
         d="m 33.4492,353.367 v -0.004" /><path
         id="path48"
         style="fill:#6f329a;fill-opacity:1;fill-rule:nonzero;stroke:none"
         d="m 96.0078,285.68 -49.1406,57.988 109.3088,20.52 c -0.969,2.027 -1.563,4.273 -1.563,6.664 0,0.386 0.086,0.746 0.117,1.125 l -113.7612,-21.356 -4.4922,5.305 -3.0274,-2.563 -3.0273,-2.566 1.5742,-1.859 -6.6016,-1.243 0.7305,-3.894 0.7227,-3.891 11.0468,2.074 52.0508,-61.41 c 1.5313,2.192 3.6328,3.942 6.0625,5.106" /><path
         id="path50"
         style="fill:#6f329a;fill-opacity:1;fill-rule:nonzero;stroke:none"
         d="m 158.5,360.664 -50.605,-74.363 c 2.558,-0.914 4.793,-2.457 6.55,-4.473 l 50.606,74.367 c -2.567,0.907 -4.805,2.453 -6.551,4.469" /><path
         id="path52"
         style="fill:none;stroke:#ffffff;stroke-width:2.83465004;stroke-linecap:round;stroke-linejoin:round;stroke-miterlimit:4;stroke-dasharray:none;stroke-opacity:1"
         d="M 26.1172,343.801 H 26.125" /><path
         id="path54"
         style="fill:#6f329a;fill-opacity:1;fill-rule:nonzero;stroke:none"
         d="m 177.855,384.391 24.922,95.605 84.649,-38.285 c 0.457,2.715 1.629,5.16 3.301,7.211 l -85.93,38.859 2.344,8.969 -7.676,2.008 -2,-7.66 -6.086,2.754 -1.641,-3.614 -1.629,-3.613 7.332,-3.312 -25.242,-96.852 c 0.008,0 0.02,0.008 0.028,0.008 2.785,0 5.363,-0.797 7.628,-2.078" /><path
         id="path56"
         style="fill:#6f329a;fill-opacity:1;fill-rule:nonzero;stroke:none"
         d="M 287.551,435.75 181.77,381.266 c 1.777,-1.965 3.085,-4.36 3.671,-7.036 l 105.782,54.485 c -1.778,1.965 -3.075,4.359 -3.672,7.035" /><path
         id="path58"
         style="fill:none;stroke:#ffffff;stroke-width:2.83465004;stroke-linecap:round;stroke-linejoin:round;stroke-miterlimit:4;stroke-dasharray:none;stroke-opacity:1"
         d="m 423.547,521.203 v 0" /><path
         id="path60"
         style="fill:#6f329a;fill-opacity:1;fill-rule:nonzero;stroke:none"
         d="m 317.426,444.293 92.226,62.668 19.414,-88.16 c 2.137,1.109 4.532,1.793 7.098,1.793 0.215,0 0.422,-0.059 0.645,-0.071 l -20.086,91.239 9.05,6.156 -2.226,3.285 -2.227,3.274 -6.433,-4.372 -0.383,1.715 -7.754,-1.707 1.066,-4.812 -94.855,-64.457 c 2.012,-1.754 3.555,-3.985 4.465,-6.551" /><path
         id="path62"
         style="fill:none;stroke:#ffffff;stroke-width:2.83465004;stroke-linecap:round;stroke-linejoin:round;stroke-miterlimit:4;stroke-dasharray:none;stroke-opacity:1"
         d="m 189.738,490.238 v 0" /><path
         id="path64"
         style="fill:#6f329a;fill-opacity:1;fill-rule:nonzero;stroke:none"
         d="m 420.551,404.988 c 0,2.762 0.781,5.317 2.051,7.575 L 318.363,439.23 c 0,-0.035 0.008,-0.066 0.008,-0.105 0,-2.762 -0.781,-5.32 -2.039,-7.57 l 104.227,-26.668 c 0,0.031 -0.008,0.066 -0.008,0.101" /><path
         id="path66"
         style="fill:#6f329a;fill-opacity:1;fill-rule:nonzero;stroke:none"
         d="m 338.871,349.887 -27.297,76.371 c -2.156,-1.488 -4.726,-2.379 -7.488,-2.613 l 27.285,-76.368 c 2.168,1.485 4.734,2.375 7.5,2.61" /><path
         id="path68"
         style="fill:#6f329a;fill-opacity:1;fill-rule:nonzero;stroke:none"
         d="m 324.574,334.406 c 0,2.539 0.672,4.907 1.746,7.028 l -140.554,30.14 c 0.007,-0.246 0.066,-0.472 0.066,-0.722 0,-2.539 -0.664,-4.903 -1.746,-7.028 l 140.566,-30.14 c -0.011,0.246 -0.078,0.472 -0.078,0.722" /><path
         id="path70"
         style="fill:#6f329a;fill-opacity:1;fill-rule:nonzero;stroke:none"
         d="m 253.461,277.867 75.828,45.399 c -1.894,1.851 -3.269,4.211 -4.031,6.836 l -75.84,-45.399 c 1.902,-1.859 3.281,-4.215 4.043,-6.836" /><path
         id="path72"
         style="fill:#6f329a;fill-opacity:1;fill-rule:nonzero;stroke:none"
         d="m 233.137,288.141 -51.035,72.703 c -1.719,-2.043 -3.926,-3.633 -6.473,-4.582 l 51.035,-72.692 c 1.719,2.039 3.926,3.629 6.473,4.571" /><path
         id="path74"
         style="fill:#6f329a;fill-opacity:1;fill-rule:nonzero;stroke:none"
         d="m 222.922,273.559 c 0,1.3 0.207,2.546 0.508,3.757 L 117.68,275.82 c 0.371,-1.34 0.644,-2.722 0.644,-4.183 0,-1.297 -0.215,-2.543 -0.519,-3.754 l 105.754,1.496 c -0.371,1.336 -0.637,2.723 -0.637,4.18" /><path
         id="path76"
         style="fill:#6f329a;fill-opacity:1;fill-rule:nonzero;stroke:none"
         d="m 224.496,266.844 -88.82,-75.481 c 2.187,-1.539 3.945,-3.633 5.117,-6.062 l 88.82,75.476 c -2.187,1.536 -3.945,3.629 -5.117,6.067" /><path
         id="path78"
         style="fill:#6f329a;fill-opacity:1;fill-rule:nonzero;stroke:none"
         d="m 238.527,257.945 c -1.629,0 -3.172,0.325 -4.648,0.789 l -4.441,-96.355 c 1.062,0.23 2.148,0.363 3.269,0.363 1.633,0 3.176,-0.328 4.66,-0.793 l 4.434,96.356 c -1.055,-0.227 -2.149,-0.36 -3.274,-0.36" /><path
         id="path80"
         style="fill:#6f329a;fill-opacity:1;fill-rule:nonzero;stroke:none"
         d="m 244.348,16.2188 v 0.0039 z M 232.707,131.527 c -1.043,0 -2.059,0.11 -3.055,0.305 l 5.801,-96.5703 -96.672,133.4923 c -1.687,-2.07 -3.867,-3.707 -6.394,-4.695 L 236.34,20.5117 l 0.734,-12.25779 3.965,0.23437 3.953,0.23438 -0.457,7.63674 3.016,2.1914 -3.426,4.7422 -6.555,109.082 c -1.543,-0.508 -3.152,-0.848 -4.863,-0.848" /><path
         id="path82"
         style="fill:#6f329a;fill-opacity:1;fill-rule:nonzero;stroke:none"
         d="m 140.051,170.504 77.101,-22.887 c 0.086,2.781 0.907,5.363 2.274,7.602 l -77.11,22.883 c -0.086,-2.782 -0.906,-5.364 -2.265,-7.598" /><path
         id="path84"
         style="fill:none;stroke:#ffffff;stroke-width:2.83465004;stroke-linecap:round;stroke-linejoin:round;stroke-miterlimit:4;stroke-dasharray:none;stroke-opacity:1"
         d="m 325.883,187.176 v 0" /><path
         id="path86"
         style="fill:#6f329a;fill-opacity:1;fill-rule:nonzero;stroke:none"
         d="m 350.414,322.723 65.262,-44.043 c 0.898,2.566 2.433,4.808 4.433,6.566 l -65.254,44.039 c -0.898,-2.562 -2.429,-4.805 -4.441,-6.562" /><path
         id="path88"
         style="fill:#6f329a;fill-opacity:1;fill-rule:nonzero;stroke:none"
         d="m 354.672,340.141 71.738,52.757 c -2.082,1.68 -3.73,3.836 -4.738,6.356 l -71.738,-52.758 c 2.082,-1.676 3.73,-3.84 4.738,-6.355" /><path
         id="path90"
         style="fill:#6f329a;fill-opacity:1;fill-rule:nonzero;stroke:none"
         d="m 451.781,404.988 c 0,-0.402 -0.097,-0.781 -0.129,-1.175 l 133.477,24.632 -46.152,-127.781 c 2.765,-0.242 5.332,-1.144 7.492,-2.641 l 47.703,132.09 8.75,1.617 -1.445,7.809 -5.106,-0.941 -6.711,2.414 -1.414,-3.914 -138.008,-25.477 c 0.957,-2.019 1.543,-4.25 1.543,-6.633" /><path
         id="path92"
         style="fill:#6f329a;fill-opacity:1;fill-rule:nonzero;stroke:none"
         d="m 442.863,390.945 81.985,-96.812 c 1.543,2.187 3.632,3.941 6.074,5.101 l -81.992,96.817 c -1.535,-2.192 -3.633,-3.938 -6.067,-5.106" /><path
         id="path94"
         style="fill:#6f329a;fill-opacity:1;fill-rule:nonzero;stroke:none"
         d="m 445.949,273.559 c 0,-0.793 -0.117,-1.555 -0.234,-2.321 l 77.363,8.395 c -0.672,1.73 -1.074,3.597 -1.074,5.558 0,0.797 0.117,1.559 0.234,2.321 l -77.351,-8.391 c 0.664,-1.73 1.062,-3.598 1.062,-5.562" /><path
         id="path96"
         style="fill:#6f329a;fill-opacity:1;fill-rule:nonzero;stroke:none"
         d="m 548.957,274.543 95.461,-51.648 3.777,6.98 -95.457,51.652 c -0.644,-2.664 -1.965,-5.05 -3.781,-6.984" /><path
         id="path98"
         style="fill:#6f329a;fill-opacity:1;fill-rule:nonzero;stroke:none"
         d="m 553.215,285.191 c 0,-0.394 -0.086,-0.761 -0.117,-1.152 l 99.816,18.617 -1.465,7.809 -99.777,-18.613 c 0.957,-2.028 1.543,-4.266 1.543,-6.661" /><path
         id="path100"
         style="fill:#6f329a;fill-opacity:1;fill-rule:nonzero;stroke:none"
         d="m 99.6992,274.227 3.0078,-2.582 v 0 0 l 3.02,-2.59 -9.7856,-11.407 c 2.0313,-0.992 4.2966,-1.589 6.6996,-1.605 0.027,0 0.047,-0.008 0.066,-0.008 2.773,0 5.344,0.789 7.609,2.063 3.692,2.082 6.446,5.578 7.489,9.785 0.304,1.211 0.519,2.457 0.519,3.754 0,1.461 -0.273,2.843 -0.644,4.183 -0.637,2.254 -1.739,4.289 -3.235,6.008 -1.757,2.016 -3.992,3.559 -6.55,4.473 -1.633,0.578 -3.36,0.953 -5.188,0.953 -2.402,0 -4.6562,-0.598 -6.6992,-1.574 -2.4297,-1.164 -4.5312,-2.914 -6.0625,-5.106 -1.7773,-2.539 -2.8437,-5.605 -2.8437,-8.937 0,-3.289 1.0351,-6.336 2.7851,-8.856 l 9.8125,11.446" /><path
         id="path102"
         style="fill:#6f329a;fill-opacity:1;fill-rule:nonzero;stroke:none"
         d="m 156.176,364.188 c 0.605,-1.29 1.394,-2.461 2.324,-3.524 1.746,-2.016 3.984,-3.562 6.551,-4.469 1.633,-0.578 3.351,-0.953 5.176,-0.953 1.906,0 3.711,0.391 5.402,1.02 2.547,0.949 4.754,2.539 6.473,4.582 0.773,0.91 1.437,1.906 1.984,2.98 1.082,2.125 1.746,4.489 1.746,7.028 0,0.25 -0.059,0.476 -0.066,0.722 -0.039,0.91 -0.129,1.797 -0.325,2.656 -0.586,2.676 -1.894,5.071 -3.671,7.036 -1.122,1.246 -2.442,2.293 -3.915,3.125 -2.265,1.281 -4.843,2.078 -7.628,2.078 -0.008,0 -0.02,-0.008 -0.028,-0.008 -8.215,-0.016 -14.883,-6.414 -15.469,-14.484 -0.031,-0.379 -0.117,-0.739 -0.117,-1.125 0,-2.391 0.594,-4.637 1.563,-6.664" /><path
         id="path104"
         style="fill:#6f329a;fill-opacity:1;fill-rule:nonzero;stroke:none"
         d="m 287.426,441.711 c -0.149,-0.844 -0.266,-1.699 -0.266,-2.586 0,-1.164 0.149,-2.285 0.391,-3.375 0.597,-2.676 1.894,-5.07 3.672,-7.035 2.863,-3.172 6.953,-5.203 11.543,-5.203 0.449,0 0.879,0.093 1.32,0.133 2.762,0.234 5.332,1.125 7.488,2.613 1.985,1.355 3.586,3.191 4.758,5.297 1.258,2.25 2.039,4.808 2.039,7.57 0,0.039 -0.008,0.07 -0.008,0.105 -0.011,1.782 -0.371,3.473 -0.937,5.063 -0.91,2.566 -2.453,4.797 -4.465,6.551 -2.742,2.386 -6.277,3.886 -10.195,3.886 -4.871,0 -9.18,-2.296 -12.039,-5.808 -1.672,-2.051 -2.844,-4.496 -3.301,-7.211" /><path
         id="path106"
         style="fill:#6f329a;fill-opacity:1;fill-rule:nonzero;stroke:none"
         d="m 429.066,418.801 c -2.734,-1.406 -4.972,-3.571 -6.464,-6.238 -1.27,-2.258 -2.051,-4.813 -2.051,-7.575 0,-0.035 0.008,-0.07 0.008,-0.101 0.019,-1.992 0.421,-3.883 1.113,-5.633 1.008,-2.52 2.656,-4.676 4.738,-6.356 1.512,-1.222 3.231,-2.148 5.125,-2.746 l 0.664,15.016 7.922,-0.355 -0.664,-15.075 c 1.199,0.258 2.324,0.688 3.406,1.207 2.434,1.168 4.532,2.914 6.067,5.106 1.562,2.226 2.508,4.89 2.722,7.762 0.032,0.394 0.129,0.773 0.129,1.175 0,2.383 -0.586,4.614 -1.543,6.633 -2.414,5.094 -7.48,8.66 -13.429,8.902 -0.223,0.012 -0.43,0.071 -0.645,0.071 -2.566,0 -4.961,-0.684 -7.098,-1.793" /><path
         id="path108"
         style="fill:#6f329a;fill-opacity:1;fill-rule:nonzero;stroke:none"
         d="m 354.855,329.285 c 0.567,1.617 0.938,3.32 0.938,5.121 0,2.028 -0.418,3.957 -1.121,5.735 -1.008,2.515 -2.656,4.679 -4.738,6.355 -2.676,2.168 -6.043,3.52 -9.746,3.52 -0.458,0 -0.879,-0.09 -1.317,-0.129 -2.766,-0.235 -5.332,-1.125 -7.5,-2.61 -2.148,-1.48 -3.859,-3.504 -5.051,-5.843 -1.074,-2.121 -1.746,-4.489 -1.746,-7.028 0,-0.25 0.067,-0.476 0.078,-0.722 0.059,-1.239 0.274,-2.438 0.606,-3.582 0.762,-2.625 2.137,-4.985 4.031,-6.836 1.555,-1.516 3.43,-2.672 5.488,-3.442 1.692,-0.629 3.496,-1.019 5.411,-1.019 0.851,0 1.671,0.117 2.492,0.25 2.949,0.476 5.586,1.781 7.734,3.668 2.012,1.757 3.543,4 4.441,6.562" /><path
         id="path110"
         style="fill:#6f329a;fill-opacity:1;fill-rule:nonzero;stroke:none"
         d="m 253.461,277.867 c -0.762,2.621 -2.141,4.977 -4.043,6.836 -2.813,2.75 -6.652,4.457 -10.891,4.457 -1.894,0 -3.699,-0.387 -5.39,-1.019 -2.547,-0.942 -4.754,-2.532 -6.473,-4.571 -1.523,-1.797 -2.648,-3.91 -3.234,-6.254 -0.301,-1.211 -0.508,-2.457 -0.508,-3.757 0,-1.457 0.266,-2.844 0.637,-4.18 0.254,-0.883 0.554,-1.727 0.937,-2.535 1.172,-2.438 2.93,-4.531 5.117,-6.067 1.289,-0.902 2.735,-1.562 4.266,-2.043 1.476,-0.464 3.019,-0.789 4.648,-0.789 1.125,0 2.219,0.133 3.274,0.36 2.019,0.433 3.906,1.258 5.554,2.394 l -11.414,9.856 2.586,3.004 v 0 0 l 2.598,3.007 11.379,-9.832 c 1.016,2.071 1.641,4.368 1.641,6.825 0,1.507 -0.286,2.933 -0.684,4.308" /><path
         id="path112"
         style="fill:#6f329a;fill-opacity:1;fill-rule:nonzero;stroke:none"
         d="m 138.781,168.754 c 0.461,0.555 0.891,1.133 1.27,1.75 1.359,2.234 2.179,4.816 2.265,7.598 0.012,0.168 0.051,0.32 0.051,0.484 0,2.41 -0.597,4.672 -1.574,6.715 -1.172,2.429 -2.93,4.523 -5.117,6.062 -2.52,1.754 -5.555,2.805 -8.848,2.821 -0.019,0 -0.039,0.004 -0.066,0.004 -2.774,0 -5.344,-0.786 -7.598,-2.055 -3.691,-2.082 -6.445,-5.582 -7.5,-9.793 -0.305,-1.211 -0.508,-2.453 -0.508,-3.754 0,-1.461 0.262,-2.844 0.645,-4.184 1.836,-6.566 7.812,-11.429 14.961,-11.429 1.992,0 3.867,0.41 5.625,1.086 2.527,0.988 4.707,2.625 6.394,4.695" /><path
         id="path114"
         style="fill:#6f329a;fill-opacity:1;fill-rule:nonzero;stroke:none"
         d="m 244.223,157.578 c -1.836,2.024 -4.192,3.531 -6.856,4.371 -1.484,0.465 -3.027,0.793 -4.66,0.793 -1.121,0 -2.207,-0.133 -3.269,-0.363 -4.25,-0.906 -7.813,-3.566 -10.012,-7.16 -1.367,-2.239 -2.188,-4.821 -2.274,-7.602 0,-0.164 -0.05,-0.316 -0.05,-0.48 0,-7.567 5.41,-13.879 12.55,-15.305 0.996,-0.195 2.012,-0.305 3.055,-0.305 1.711,0 3.32,0.34 4.863,0.848 6.223,2.055 10.743,7.855 10.743,14.762 0,1.179 -0.157,2.316 -0.399,3.422 -0.605,2.671 -1.906,5.058 -3.691,7.019" /><path
         id="path116"
         style="fill:#6f329a;fill-opacity:1;fill-rule:nonzero;stroke:none"
         d="m 445.715,271.238 c 0.117,0.766 0.234,1.528 0.234,2.321 0,1.964 -0.398,3.832 -1.062,5.562 -1.711,4.43 -5.364,7.84 -9.922,9.266 l -0.617,-14.039 5.91,-12.743 c 2.879,2.391 4.883,5.766 5.457,9.633" /><path
         id="path118"
         style="fill:#6f329a;fill-opacity:1;fill-rule:nonzero;stroke:none"
         d="m 415.676,278.68 c -0.567,-1.614 -0.938,-3.321 -0.938,-5.121 0,-2.125 0.43,-4.149 1.211,-5.996 l 10.52,8.027 0.586,13.207 c -2.637,-0.567 -4.981,-1.836 -6.946,-3.551 -2,-1.758 -3.535,-4 -4.433,-6.566" /><path
         id="path120"
         style="fill:#6f329a;fill-opacity:1;fill-rule:nonzero;stroke:none"
         d="m 428.832,267.414 -8.027,-6.125 c 2.644,-2.062 5.925,-3.344 9.539,-3.344 0.937,0 1.855,0.118 2.746,0.282 l -4.258,9.187" /><path
         id="path122"
         style="fill:#6f329a;fill-opacity:1;fill-rule:nonzero;stroke:none"
         d="m 552.738,281.527 c 0.196,0.813 0.301,1.661 0.36,2.512 0.031,0.391 0.117,0.758 0.117,1.152 0,2.395 -0.586,4.633 -1.543,6.661 -1.18,2.48 -2.969,4.621 -5.203,6.171 -2.16,1.497 -4.727,2.399 -7.492,2.641 -0.45,0.039 -0.899,0.141 -1.368,0.141 -2.402,0 -4.656,-0.594 -6.687,-1.571 -2.442,-1.16 -4.531,-2.914 -6.074,-5.101 -1.36,-1.934 -2.246,-4.184 -2.61,-6.621 -0.117,-0.762 -0.234,-1.524 -0.234,-2.321 0,-1.961 0.402,-3.828 1.074,-5.558 0.617,-1.621 1.516,-3.078 2.61,-4.387 l 8.691,12.242 3.23,-2.297 3.762,1.297 4.902,-14.265 c 0.985,0.664 1.864,1.457 2.684,2.32 1.816,1.934 3.137,4.32 3.781,6.984" /><path
         id="path124"
         style="fill:#6f329a;fill-opacity:1;fill-rule:nonzero;stroke:none"
         d="m 536.371,276.59 -4.23,-5.957 c 1.711,-0.645 3.547,-1.039 5.468,-1.039 0.391,0 0.754,0.082 1.133,0.109 l -2.371,6.887" /><path
         id="path126"
         style="fill:none;stroke:#ffffff;stroke-width:2.83465004;stroke-linecap:round;stroke-linejoin:round;stroke-miterlimit:4;stroke-dasharray:none;stroke-opacity:1"
         d="m 238.527,273.559 v 0" /><path
         id="path128"
         style="fill:none;stroke:#ffffff;stroke-width:2.83465004;stroke-linecap:round;stroke-linejoin:round;stroke-miterlimit:4;stroke-dasharray:none;stroke-opacity:1"
         d="m 102.707,271.645 v 0" /><path
         id="path130"
         style="fill:#6f329a;fill-opacity:1;fill-rule:nonzero;stroke:none"
         d="m 541.371,286.488 -3.762,-1.297 -3.23,2.297 -8.691,-12.242 -55.481,-78.148 -29.949,64.507 -5.91,12.743 0.617,14.039 4.492,101.351 0.664,15.075 -7.922,0.355 -0.664,-15.016 -4.48,-101.355 -0.586,-13.207 -10.52,-8.027 -84.539,-64.524 11.27,116.016 c -0.821,-0.133 -1.641,-0.25 -2.492,-0.25 -1.915,0 -3.719,0.39 -5.411,1.019 l -11.121,-114.523 -71.152,61.433 -11.379,9.832 -2.598,-3.007 -2.586,-3.004 11.414,-9.856 73.411,-63.386 -76.543,-39.735 c 1.785,-1.961 3.086,-4.348 3.691,-7.019 l 74.168,38.5 -0.144,-1.496 3.945,-0.387 3.953,-0.383 0.234,2.477 2.383,-2.055 5.188,6.012 -2.825,2.429 85.989,65.633 8.027,6.125 4.258,-9.187 31.836,-68.571 -2.785,-3.929 6.476,-4.586 63.524,89.492 4.23,5.957 2.371,-6.887 45.266,-131.691 7.508,2.582 -45.243,131.629 -4.902,14.265" /><path
         id="path132"
         style="fill:#6f329a;fill-opacity:1;fill-rule:nonzero;stroke:none"
         d="m 635.598,230.262 -53.184,-74.188 -111.641,40.051 c -1.074,0.395 -2.207,0.609 -3.347,0.645 l -136.535,4.41 c -4.305,-0.032 -8.25,-2.239 -10.164,-6.055 L 236.781,27.2578 22.6289,177.855 42.375,342.738 200.492,484.547 412.074,510.102 588.059,430.055 641.047,304.73 Z m 26.679,80.566 -55.691,131.703 c -1.074,2.535 -3.059,4.567 -5.559,5.707 l -182.675,83.086 c -1.836,0.848 -3.887,1.125 -5.848,0.91 L 194.426,505.895 c -2.227,-0.266 -4.324,-1.223 -6.004,-2.723 L 24.6602,356.301 c -1.9805,-1.781 -3.25,-4.215 -3.5625,-6.86 L 0.0820313,173.953 C -0.398438,169.949 1.35938,166.008 4.66016,163.684 L 234.582,1.99219 c 1.867,-1.30469 4.063,-1.98828375 6.301,-1.98828375 0.898,0 1.797,0.10937475 2.683,0.32421875 3.098,0.785155 5.696,2.871095 7.122,5.730465 l 86.511,172.97641 127.793,-4.133 117.805,-42.254 c 4.609,-1.652 9.754,-0.058 12.617,3.93 l 59.805,83.426 c 1.179,1.633 1.875,3.562 2.019,5.574 l 5.871,80.18 c 0.137,1.738 -0.156,3.472 -0.832,5.07" /></g></g></svg>