<svg width="932" height="320" viewBox="0 0 932 320" fill="none" xmlns="http://www.w3.org/2000/svg">
<path d="M668.615 122.152C665.524 125.544 664.926 128.637 664.428 133.027C663.53 140.012 655.854 145.699 651.069 150.688C650.57 151.187 650.77 152.185 651.468 152.384C656.353 153.382 659.942 157.673 663.53 160.965C666.82 163.959 670.11 166.852 672.802 170.345C673.001 169.746 673.3 169.247 673.5 168.648C663.331 169.247 653.063 169.746 643.093 167.651C635.417 166.054 628.638 164.458 620.662 165.755C603.017 168.648 588.561 180.223 572.311 186.808C571.115 187.307 571.613 189.203 572.809 188.704C588.561 182.318 602.518 171.243 619.366 167.95C629.236 166.054 637.51 169.047 647.081 170.444C655.754 171.642 664.527 171.143 673.3 170.744C674.198 170.644 674.497 169.746 673.998 169.047C670.609 164.657 666.123 161.065 662.035 157.274C658.945 154.38 656.053 151.486 651.767 150.588C651.866 151.187 652.066 151.686 652.165 152.285C656.253 147.994 661.238 143.903 664.727 139.114C665.724 137.717 666.023 136.52 666.123 134.823C666.422 130.333 666.521 127.44 669.711 123.848C670.908 122.551 669.512 121.154 668.615 122.152Z" fill="white"/>
<path d="M567.127 185.81C572.411 190.101 578.193 193.094 584.873 194.79C584.773 194.192 584.673 193.593 584.673 192.994C580.985 194.591 577.196 195.389 573.209 195.09C568.922 194.79 566.031 192.895 562.143 191.398C557.856 189.802 552.373 193.493 548.086 194.391C540.21 196.088 533.032 195.589 525.156 194.79C522.564 194.491 520.87 194.691 518.377 195.489C516.981 195.888 515.586 196.487 514.09 196.786C512.695 197.185 511.199 197.385 509.704 197.484C507.411 197.884 505.816 196.686 504.919 193.793C505.517 192.695 503.822 191.598 503.224 192.795C500.532 197.884 506.514 199.779 510.601 199.38C515.386 198.881 519.773 196.287 524.658 196.786C529.343 197.185 533.83 197.983 538.615 197.684C542.802 197.484 546.989 196.786 551.077 195.688C553.27 195.09 555.563 193.892 557.756 193.493C560.548 192.895 562.541 194.192 565.133 195.289C571.813 198.083 579.091 197.584 585.571 194.79C586.368 194.391 586.069 193.194 585.371 192.994C579.091 191.398 573.508 188.604 568.523 184.513C567.626 183.615 566.13 185.012 567.127 185.81Z" fill="white"/>
<path d="M511 191.6C508.608 191.4 506.414 190.801 504.321 189.704C503.224 189.205 497.94 186.411 499.236 184.515C498.937 184.515 498.738 184.615 498.439 184.615C501.928 187.409 505.916 189.504 510.203 190.801C510.203 190.502 510.103 190.203 510.103 189.903C509.505 189.604 509.006 190.402 509.604 190.801C509.704 190.801 509.804 190.901 509.904 190.901C510.003 191.001 510.302 191.001 510.402 190.901C510.502 190.801 510.601 190.801 510.601 190.702C510.9 190.402 510.9 189.903 510.502 189.804C506.414 188.506 502.626 186.511 499.236 183.817C498.937 183.617 498.638 183.617 498.439 183.917C496.943 186.012 500.134 188.107 501.529 189.105C504.321 191.101 507.611 192.198 511.1 192.498C511.698 192.597 511.698 191.6 511 191.6Z" fill="white"/>
<path d="M500.832 185.312C513.692 180.223 523.861 170.844 535.326 163.361C541.706 159.17 548.485 155.678 555.962 154.082C560.747 153.084 570.218 154.082 573.708 149.691C575.702 147.097 576.798 143.505 578.692 140.811C581.384 137.019 584.774 133.727 588.662 131.033C590.257 129.935 592.849 127.94 594.942 129.636C596.139 130.634 597.734 135.223 598.033 137.019C598.93 141.31 594.145 141.011 592.151 144.004C589.26 148.394 595.64 148.195 598.232 148.195C607.105 148.294 616.376 148.993 625.249 148.195C633.524 147.496 638.209 141.41 644.291 136.62C651.967 130.534 660.74 126.044 670.111 122.951C671.308 122.552 670.809 120.656 669.613 121.055C656.752 125.246 646.384 132.23 636.215 141.011C631.929 144.702 628.24 146.199 622.557 146.399C618.869 146.498 615.08 146.399 611.392 146.299C607.603 146.299 603.915 146.299 600.126 146.199C599.728 146.199 594.643 146.498 594.544 146.199C593.746 144.203 599.528 141.21 600.625 140.412C600.924 140.212 601.223 139.713 601.123 139.314C599.827 136.221 598.731 132.928 597.235 129.935C596.637 128.638 595.939 127.341 594.544 126.842C591.553 125.844 587.764 129.336 585.671 131.033C581.583 134.226 577.994 138.117 575.402 142.607C573.409 145.999 572.511 149.192 568.524 150.589C565.433 151.587 561.545 151.487 558.355 151.986C535.525 155.578 521.269 175.534 500.533 183.716C499.037 183.915 499.635 185.811 500.832 185.312Z" fill="white"/>
<path d="M575.601 153.383C571.314 152.286 566.928 151.887 562.442 152.186C561.844 152.186 561.844 153.184 562.442 153.184C566.828 152.885 571.115 153.284 575.302 154.381C576 154.481 576.199 153.483 575.601 153.383Z" fill="white"/>
<path d="M568.323 155.279C563.637 154.581 558.952 154.481 554.166 154.78C553.568 154.78 553.568 155.778 554.166 155.778C558.852 155.379 563.438 155.578 568.024 156.177C568.622 156.377 568.921 155.379 568.323 155.279Z" fill="white"/>
<path d="M560.349 158.173C555.364 157.674 550.479 157.475 545.495 157.674C544.896 157.674 544.896 158.672 545.495 158.672C550.479 158.472 555.464 158.572 560.349 159.171C560.947 159.271 560.947 158.273 560.349 158.173Z" fill="white"/>
<path d="M554.965 162.065C551.276 161.167 547.588 160.768 543.799 160.668C543.201 160.668 543.201 161.666 543.799 161.666C547.488 161.766 551.177 162.165 554.765 162.963C555.364 163.162 555.563 162.264 554.965 162.065Z" fill="white"/>
<path d="M548.584 165.756C543.6 164.558 538.615 163.96 533.531 164.06C532.932 164.06 532.932 165.057 533.531 165.057C538.515 164.958 543.5 165.456 548.385 166.654C548.983 166.853 549.282 165.856 548.584 165.756Z" fill="white"/>
<path d="M531.836 181.721C531.636 185.812 529.443 189.504 525.854 191.499C525.256 191.799 525.754 192.697 526.352 192.397C530.241 190.102 532.633 186.211 532.833 181.721C532.833 181.023 531.836 181.023 531.836 181.721Z" fill="white"/>
<path d="M527.249 177.331C528.246 182.22 524.458 185.712 521.068 188.606C520.57 189.005 521.267 189.703 521.766 189.304C525.454 186.111 529.243 182.32 528.246 177.031C528.047 176.433 527.149 176.732 527.249 177.331Z" fill="white"/>
<path d="M517.28 180.223C518.775 180.023 520.47 179.824 521.666 180.921C522.962 182.218 521.866 183.915 520.57 184.513C519.174 185.212 517.479 184.912 516.682 183.515C515.685 181.919 516.781 179.923 518.676 180.023C519.274 180.023 519.274 179.025 518.676 179.025C516.682 178.926 514.987 180.722 515.386 182.817C515.785 184.912 517.778 186.11 519.872 185.81C521.766 185.511 523.86 183.815 523.361 181.719C522.763 179.025 519.573 178.926 517.479 179.225C516.682 179.325 516.682 180.323 517.28 180.223Z" fill="white"/>
<path d="M517.88 181.122C518.279 181.022 518.677 181.421 518.578 181.82C518.578 182.219 518.079 182.319 517.78 182.219C516.783 182.12 517.182 180.922 517.78 180.623C518.378 180.324 517.88 179.525 517.281 179.725C516.484 180.124 515.985 181.022 516.185 181.92C516.384 182.818 517.182 183.317 518.079 183.217C518.977 183.117 519.675 182.419 519.575 181.521C519.475 180.623 518.578 179.925 517.581 180.124C516.982 180.224 517.182 181.222 517.88 181.122Z" fill="white"/>
<path d="M537.319 186.61C541.606 184.116 545.793 181.322 549.781 178.428C549.282 178.129 548.784 177.83 548.285 177.53C548.086 179.426 547.887 181.222 547.588 183.118C547.388 184.914 547.488 187.708 546.092 189.104C543.6 191.599 537.618 189.803 534.528 189.504C533.232 189.404 533.232 191.399 534.528 191.499C538.416 191.898 544.198 193.694 547.488 190.501C548.684 189.404 548.884 188.007 549.183 186.41C549.581 183.417 549.88 180.424 550.279 177.43C550.379 176.732 549.382 176.133 548.784 176.532C544.796 179.426 540.609 182.22 536.322 184.714C535.226 185.512 536.222 187.209 537.319 186.61Z" fill="white"/>
<path d="M663.132 127.741C657.849 130.235 652.764 133.129 647.879 136.421C647.381 136.82 647.879 137.619 648.378 137.319C653.263 134.027 658.347 131.133 663.631 128.639C664.229 128.339 663.731 127.541 663.132 127.741Z" fill="white"/>
<path d="M662.234 133.03C655.954 135.125 649.972 137.72 644.19 140.913C643.592 141.212 644.09 142.11 644.688 141.811C650.371 138.718 656.353 136.123 662.534 134.028C663.132 133.828 662.833 132.831 662.234 133.03Z" fill="white"/>
<path d="M658.946 138.217C654.958 139.814 650.97 141.311 646.982 142.907C646.384 143.107 646.683 144.104 647.281 143.905C651.269 142.308 655.257 140.812 659.245 139.215C659.743 138.916 659.544 137.918 658.946 138.217Z" fill="white"/>
<path d="M654.658 142.906C650.172 144.402 645.586 145.999 641.099 147.495C640.501 147.695 640.8 148.693 641.399 148.493C645.885 146.997 650.471 145.4 654.957 143.903C655.455 143.604 655.256 142.706 654.658 142.906Z" fill="white"/>
<path d="M650.671 146.298C647.58 147.595 644.49 148.493 641.299 149.291C640.701 149.391 640.901 150.388 641.599 150.289C644.789 149.59 647.979 148.592 650.97 147.295C651.468 146.996 651.269 145.998 650.671 146.298Z" fill="white"/>
<path d="M649.076 151.189C647.181 151.588 645.287 151.787 643.393 151.787C642.795 151.787 642.795 152.785 643.393 152.785C645.387 152.785 647.381 152.586 649.375 152.087C649.973 152.087 649.674 151.089 649.076 151.189Z" fill="white"/>
<path d="M655.755 156.176C652.764 155.877 649.773 155.677 646.882 155.378C646.284 155.278 646.284 156.276 646.882 156.376C649.873 156.675 652.864 156.875 655.755 157.174C656.453 157.274 656.453 156.276 655.755 156.176Z" fill="white"/>
<path d="M664.229 161.965C656.154 160.967 648.278 159.171 640.602 156.677C640.004 156.477 639.704 157.475 640.303 157.674C648.079 160.169 656.054 161.965 664.229 162.963C664.927 162.963 664.927 161.965 664.229 161.965Z" fill="white"/>
<path d="M664.827 164.559C661.139 166.056 656.752 164.46 653.064 163.462C649.175 162.464 645.387 161.267 641.599 159.97C641.001 159.77 640.702 160.768 641.3 160.967C645.686 162.464 650.172 163.861 654.659 164.959C658.048 165.757 661.737 166.954 665.027 165.557C665.625 165.358 665.426 164.36 664.827 164.559Z" fill="white"/>
<path d="M621.261 167.952C622.457 168.75 623.554 169.249 624.95 169.548C624.95 169.249 624.85 168.95 624.85 168.65C622.557 170.347 620.663 172.242 618.968 174.438C616.974 176.932 615.18 181.522 611.69 182.12C605.808 183.118 601.92 176.034 596.138 175.735C595.54 175.735 595.54 176.732 596.138 176.732C602.12 177.032 606.008 184.515 612.288 183.118C614.88 182.52 616.176 180.225 617.572 178.129C619.765 174.936 622.258 171.843 625.348 169.548C625.647 169.349 625.647 168.75 625.249 168.65C623.953 168.351 622.856 167.952 621.859 167.154C621.261 166.755 620.762 167.553 621.261 167.952Z" fill="white"/>
<path d="M580.486 194.092C575.302 193.893 570.516 192.396 566.03 189.802C565.432 189.503 564.934 190.301 565.532 190.7C570.118 193.394 575.102 194.891 580.486 195.19C581.084 195.09 581.084 194.092 580.486 194.092Z" fill="white"/>
<path d="M573.906 194.891C570.317 194.791 567.027 193.793 564.036 191.898C563.438 191.598 562.939 192.397 563.538 192.796C566.728 194.691 570.217 195.689 573.906 195.889C574.604 195.889 574.604 194.891 573.906 194.891Z" fill="white"/>
<path d="M593.546 130.035C587.365 132.13 582.579 136.72 580.187 142.806C579.987 143.405 580.885 143.704 581.184 143.105C583.477 137.418 588.063 133.028 593.945 131.032C594.443 130.733 594.144 129.835 593.546 130.035Z" fill="white"/>
<path d="M594.244 132.429C588.362 135.423 582.082 138.915 580.187 145.8C579.988 146.398 580.985 146.698 581.184 146.099C583.078 139.514 589.16 136.221 594.743 133.327C595.241 133.028 594.743 132.13 594.244 132.429Z" fill="white"/>
<path d="M596.138 135.224C591.054 138.616 586.767 142.807 583.178 147.796C582.779 148.295 583.676 148.794 584.075 148.295C587.565 143.505 591.752 139.415 596.736 136.122C597.135 135.723 596.637 134.925 596.138 135.224Z" fill="white"/>
<path d="M620.663 169.348C618.968 168.45 617.273 167.752 615.479 167.253C614.88 167.053 614.581 168.051 615.18 168.251C616.974 168.749 618.569 169.348 620.164 170.246C620.762 170.446 621.261 169.647 620.663 169.348Z" fill="white"/>
<path d="M617.871 170.944C615.877 169.847 613.783 169.049 611.49 168.65C610.892 168.55 610.593 169.548 611.191 169.647C613.385 170.046 615.378 170.745 617.273 171.842C617.97 172.042 618.469 171.244 617.871 170.944Z" fill="white"/>
<path d="M615.078 173.438C612.486 172.341 609.795 171.742 607.003 171.343C606.405 171.243 606.405 172.241 607.003 172.341C609.695 172.64 612.287 173.339 614.879 174.336C615.378 174.636 615.677 173.638 615.078 173.438Z" fill="white"/>
<path d="M612.189 176.931C609.596 174.836 606.606 173.638 603.316 173.339C602.718 173.239 602.718 174.237 603.316 174.337C606.307 174.636 609.098 175.734 611.491 177.63C611.989 178.029 612.687 177.33 612.189 176.931Z" fill="white"/>
<path d="M608.002 178.328C605.51 176.532 602.818 175.135 599.927 174.237C599.329 174.038 599.03 175.035 599.628 175.235C602.419 176.133 605.011 177.53 607.404 179.226C608.102 179.525 608.6 178.727 608.002 178.328Z" fill="white"/>
<path d="M472.617 165.557C476.505 165.258 480.294 168.85 479.396 172.941C478.699 176.234 475.508 178.828 472.218 178.828C468.729 178.828 464.442 174.238 465.14 170.546C465.938 166.355 470.823 165.258 474.312 164.559C474.91 164.46 474.711 163.462 474.013 163.562C469.826 164.36 463.445 166.355 464.044 171.943C464.542 176.034 468.829 180.125 472.916 179.726C476.705 179.426 480.094 176.234 480.493 172.442C480.892 168.052 476.904 164.26 472.617 164.659C472.019 164.659 472.019 165.657 472.617 165.557Z" fill="white"/>
<path d="M471.422 174.736C469.927 174.736 468.531 173.938 467.734 172.641C467.435 172.043 466.537 172.641 466.837 173.14C467.833 174.737 469.528 175.734 471.323 175.734C472.12 175.734 472.12 174.736 471.422 174.736Z" fill="white"/>
<path d="M491.758 171.843C492.556 171.843 492.257 172.94 491.858 173.239C491.36 173.639 490.363 173.738 489.765 173.539C489.067 173.239 489.466 172.441 489.964 172.142C490.762 171.643 491.858 172.142 492.556 172.541C493.154 172.84 493.653 171.942 493.055 171.643C491.758 171.044 489.964 170.446 488.867 171.743C488.07 172.641 488.17 174.137 489.466 174.537C490.662 174.936 492.357 174.537 492.955 173.439C493.453 172.441 492.855 170.945 491.659 170.945C491.16 170.845 491.16 171.843 491.758 171.843Z" fill="white"/>
<path d="M801.653 151.176C791.092 145.788 787.705 133.815 786.41 122.939C785.115 111.564 784.019 99.8901 786.31 88.6152C790.096 69.5575 800.557 52.8945 807.332 34.8346C811.018 25.1561 813.508 14.9787 813.11 4.50199C813.11 3.90332 812.313 3.80355 812.114 4.40222C810.918 7.99424 812.014 11.5863 812.811 15.2781C813.708 19.7681 814.305 24.2581 814.604 28.8479C815.102 37.828 814.206 47.0076 811.914 55.6883C809.723 64.1695 806.136 72.2515 803.546 80.6329C801.055 88.4156 799.76 96.2981 800.158 104.48C800.657 113.36 802.948 121.941 807.033 129.824C807.332 130.422 808.228 129.923 807.929 129.325C800.158 114.059 799.461 97.0963 804.542 80.9322C807.033 72.95 810.42 65.3668 812.612 57.2848C814.804 49.4023 815.899 41.1207 815.8 32.9388C815.8 28.5486 815.401 24.2581 814.804 19.9676C814.106 15.1783 811.616 9.49091 813.21 4.70154C812.911 4.70154 812.512 4.60178 812.213 4.60178C812.811 25.2559 802.45 43.8147 794.38 62.1739C790.495 71.0542 786.908 80.2338 785.115 89.9123C783.122 101.187 784.218 113.061 785.613 124.436C787.008 135.212 790.794 146.886 801.155 152.174C801.752 152.374 802.251 151.476 801.653 151.176Z" fill="white"/>
<path d="M799.859 70.0568C797.07 78.9371 795.675 88.1167 795.775 97.3961C795.775 97.9947 796.771 97.9947 796.771 97.3961C796.671 88.2164 798.066 79.1366 800.855 70.3561C800.955 69.7575 800.058 69.4581 799.859 70.0568Z" fill="white"/>
<path d="M789.1 90.6113C788.204 100.489 789.698 110.367 793.484 119.447C793.683 120.046 794.68 119.747 794.48 119.148C790.695 110.068 789.2 100.29 790.196 90.5115C790.097 89.9128 789.1 89.9128 789.1 90.6113Z" fill="white"/>
<path d="M794.48 110.965C795.177 118.548 798.166 125.532 803.048 131.319C803.446 131.818 804.143 131.12 803.745 130.621C799.062 125.033 796.173 118.248 795.476 110.965C795.376 110.366 794.38 110.366 794.48 110.965Z" fill="white"/>
<path d="M788.203 119.146C790.793 126.131 794.18 132.716 798.265 138.802C798.664 139.301 799.461 138.802 799.162 138.303C795.077 132.217 791.69 125.731 789.199 118.847C788.9 118.248 787.904 118.448 788.203 119.146Z" fill="white"/>
<path d="M840.607 101.685C850.569 97.9928 859.635 92.4052 867.306 85.0216C867.805 84.6225 867.107 83.8242 866.609 84.3231C859.037 91.607 850.171 97.1945 840.308 100.787C839.81 100.986 840.009 101.984 840.607 101.685Z" fill="white"/>
<path d="M804.443 166.74C799.362 184.601 797.369 203.159 798.664 221.618C798.664 222.217 799.661 222.217 799.661 221.618C798.465 203.159 800.358 184.7 805.439 166.94C805.638 166.441 804.642 166.142 804.443 166.74Z" fill="white"/>
<path d="M809.424 164.446C805.14 181.508 804.144 199.069 806.435 216.531C806.535 217.129 807.531 217.129 807.431 216.531C805.14 199.269 806.136 181.708 810.321 164.746C810.619 164.047 809.623 163.748 809.424 164.446Z" fill="white"/>
<path d="M810.918 177.317C810.32 188.193 810.32 199.168 810.818 210.044C810.818 210.643 811.816 210.643 811.816 210.044C811.317 199.168 811.317 188.193 811.915 177.317C812.015 176.618 811.018 176.618 810.918 177.317Z" fill="white"/>
<path d="M815.102 232.195C818.888 218.525 824.467 205.354 831.74 193.181C832.038 192.583 831.241 192.084 830.843 192.682C823.57 204.955 817.891 218.226 814.106 231.995C814.006 232.594 815.002 232.793 815.102 232.195Z" fill="white"/>
<path d="M819.387 242.075C820.184 230.9 823.272 220.223 828.553 210.345C828.851 209.747 827.955 209.248 827.656 209.846C822.276 219.824 819.088 230.8 818.291 242.075C818.391 242.673 819.387 242.673 819.387 242.075Z" fill="white"/>
<path d="M826.061 253.248C826.658 230.997 832.536 209.146 843.196 189.689C843.495 189.09 842.599 188.592 842.3 189.19C831.54 208.847 825.662 230.898 825.064 253.248C825.064 253.847 826.061 253.847 826.061 253.248Z" fill="white"/>
<path d="M830.744 260.034C830.545 247.362 832.637 234.89 837.02 223.016C837.22 222.418 836.323 222.118 836.024 222.717C831.641 234.69 829.449 247.262 829.748 260.034C829.748 260.633 830.744 260.633 830.744 260.034Z" fill="white"/>
<path d="M867.705 167.838C874.779 168.835 881.952 168.636 889.025 167.339C889.623 167.239 889.424 166.241 888.726 166.341C881.752 167.538 874.779 167.738 867.705 166.74C867.107 166.74 867.107 167.738 867.705 167.838Z" fill="white"/>
<path d="M879.66 174.125C889.623 173.527 899.287 171.232 908.552 167.44C909.15 167.24 908.851 166.243 908.253 166.442C899.087 170.234 889.523 172.529 879.66 173.127C879.062 173.127 879.062 174.125 879.66 174.125Z" fill="white"/>
<path d="M806.435 239.58C808.926 215.434 817.992 192.086 832.537 172.629C836.323 167.54 840.408 162.152 846.286 159.358C852.164 156.465 859.038 156.165 865.414 156.864C877.269 158.161 888.428 162.052 900.482 161.753C911.84 161.553 923.297 158.46 931.865 150.678C931.566 150.478 931.267 150.378 931.068 150.179C927.182 160.256 918.714 167.64 909.15 172.23C898.291 177.418 886.435 178.815 874.679 181.21C869.399 182.307 864.418 184.004 860.134 187.296C856.348 190.19 853.359 193.782 850.669 197.673C844.691 206.653 840.208 216.93 837.319 227.307C834.031 239.281 833.234 251.753 834.729 264.126C834.828 264.724 835.825 264.724 835.725 264.126C833.035 241.576 838.515 218.726 850.669 199.569C853.658 194.879 857.244 190.389 861.927 187.196C866.908 183.804 872.687 182.507 878.465 181.409C889.324 179.514 900.383 177.518 910.445 172.529C919.91 167.839 928.179 160.356 931.964 150.278C932.164 149.78 931.466 149.48 931.167 149.78C922.4 157.762 910.545 160.556 898.888 160.556C886.435 160.556 874.679 156.066 862.325 155.367C856.946 155.068 851.366 155.667 846.485 157.862C840.906 160.356 836.921 165.046 833.234 169.735C825.962 179.114 819.984 189.392 815.401 200.267C810.121 212.74 806.833 225.811 805.439 239.281C805.339 240.279 806.335 240.279 806.435 239.58Z" fill="white"/>
<path d="M817.195 199.268C816.498 186.896 816.896 174.423 818.689 162.051C819.486 156.064 820.682 150.177 822.077 144.39C823.471 138.703 825.066 133.015 828.154 128.026C831.143 123.137 835.227 118.947 839.312 114.955C843.596 110.765 847.88 106.674 853.26 103.78C857.743 101.286 861.927 98.8911 865.614 95.2991C869.001 92.0064 871.79 88.0153 873.982 83.8246C879.86 72.8489 881.454 60.1771 881.952 47.9043C881.952 47.3057 881.155 47.2059 880.956 47.8046C877.27 60.9753 868.503 71.7514 857.544 79.7336C852.264 83.625 846.485 86.7181 840.508 89.3124C834.032 92.1062 827.457 94.8002 822.575 100.088C818.291 104.678 815.402 110.565 813.11 116.352C810.321 123.536 807.93 131.02 805.638 138.403C801.055 153.47 797.469 168.936 795.576 184.501C793.384 202.062 793.285 219.822 796.074 237.284C796.174 237.683 796.772 237.783 796.971 237.383C797.569 236.286 797.469 235.288 796.572 234.49C796.074 233.991 795.377 234.689 795.875 235.188C795.975 235.787 796.074 236.286 796.074 236.885C796.373 236.885 796.672 236.984 796.971 236.984C791.89 205.255 796.572 172.827 805.439 142.195C807.531 134.811 809.922 127.527 812.513 120.343C814.904 113.558 817.793 106.774 822.575 101.286C827.556 95.5984 834.53 92.9044 841.205 89.911C847.083 87.3168 852.662 84.2237 857.843 80.5319C868.901 72.4498 877.967 61.3744 881.653 48.0041C881.355 48.0041 880.956 47.9043 880.657 47.9043C880.259 59.8777 878.665 72.1505 873.085 82.9265C870.694 87.5163 867.606 91.8068 863.82 95.2991C859.636 99.1904 854.555 101.386 849.773 104.479C845.29 107.272 841.504 111.164 837.818 114.856C834.032 118.647 830.246 122.539 827.357 127.128C824.468 131.618 822.874 136.707 821.479 141.896C819.985 147.683 818.789 153.57 817.892 159.457C815.9 172.627 815.302 185.998 815.999 199.268C816.199 199.967 817.195 199.967 817.195 199.268Z" fill="white"/>
<path d="M697.643 271.109C722.65 255.244 750.944 244.867 780.333 241.175C787.307 240.277 794.779 239.279 801.753 240.377C808.926 241.574 813.808 245.965 818.391 251.353C822.077 255.643 825.564 259.734 830.346 262.628C835.626 265.92 841.703 267.916 846.884 271.408C853.061 275.399 856.847 281.286 859.835 287.871C862.625 293.858 867.507 303.437 863.82 310.022C860.234 316.608 848.777 316.109 842.401 316.508C834.431 317.007 826.46 316.907 818.49 316.408C789.399 314.812 760.408 309.424 731.317 314.113C716.772 316.508 691.068 324.69 681.404 308.526C676.423 300.244 681.902 290.765 686.386 283.481C690.47 276.796 695.651 270.51 703.422 268.315C704.617 268.016 704.119 266.02 702.924 266.419C691.168 269.712 682.899 282.883 679.013 293.758C674.131 307.129 683.696 317.805 696.846 319.601C704.717 320.699 712.787 319.302 720.557 318.005C730.122 316.408 739.586 314.612 749.35 314.213C767.282 313.415 785.115 315.61 802.849 317.206C820.084 318.803 838.117 320.2 855.253 317.007C860.732 316.009 865.614 313.415 866.809 307.628C868.005 302.04 865.614 296.153 863.522 291.064C860.832 284.579 857.644 277.894 852.463 273.004C847.183 268.115 840.309 265.721 834.132 262.328C821.479 255.443 816.199 240.078 800.757 238.082C792.587 237.084 783.92 238.381 775.85 239.579C766.386 240.976 756.921 243.071 747.755 245.865C729.823 251.253 712.687 259.135 696.846 269.213C695.551 270.111 696.547 271.807 697.643 271.109Z" fill="white"/>
<path d="M660.979 287.074C648.725 285.877 634.578 284.58 623.918 292.263C616.645 297.551 619.236 305.234 627.704 306.83C633.084 307.828 638.464 306.431 643.644 305.034C647.43 304.037 651.116 303.139 655.101 302.64C657.293 302.34 659.684 302.241 661.776 301.343C669.746 297.85 665.96 288.571 658.987 286.775C657.791 286.476 657.193 288.371 658.488 288.671C661.975 289.569 667.355 293.76 662.872 298.349C661.378 299.946 658.488 300.245 656.496 300.445C654.105 300.744 651.714 300.944 649.323 301.542C642.15 303.139 634.18 306.731 626.807 304.536C623.221 303.438 619.534 300.744 623.32 295.655C624.217 294.358 626.11 293.46 627.405 292.662C630.593 290.866 634.08 289.669 637.666 289.07C645.437 287.573 653.507 288.371 661.378 289.17C662.175 289.17 662.175 287.174 660.979 287.074Z" fill="white"/>
<path d="M689.771 296.651C695.051 287.97 702.224 280.587 710.792 275.198C711.29 274.899 710.792 274.001 710.294 274.3C701.527 279.788 694.254 287.172 688.874 296.052C688.675 296.751 689.472 297.249 689.771 296.651Z" fill="white"/>
<path d="M693.359 298.745C698.44 291.362 704.617 284.876 711.69 279.488C712.189 279.089 711.69 278.191 711.192 278.59C703.92 284.078 697.643 290.663 692.462 298.147C692.164 298.745 693.06 299.244 693.359 298.745Z" fill="white"/>
<path d="M698.64 299.346C703.322 294.157 708.005 288.969 712.687 283.78C713.085 283.281 712.388 282.583 711.99 283.082C707.307 288.27 702.625 293.459 697.942 298.647C697.544 299.046 698.241 299.745 698.64 299.346Z" fill="white"/>
<path d="M706.41 299.247C710.993 294.558 715.576 289.968 720.159 285.278C720.657 284.779 719.86 284.081 719.461 284.58C714.878 289.269 710.296 293.859 705.713 298.549C705.314 299.048 706.012 299.746 706.41 299.247Z" fill="white"/>
<path d="M66.4708 99.8703C90.9961 103.133 120.835 98.9525 131.667 73.3576C131.054 73.4596 130.543 73.6635 129.93 73.7655C151.901 93.446 184.806 93.65 206.981 74.1734C206.367 74.0714 205.856 73.8675 205.243 73.7655C207.9 81.6173 214.236 88.0415 220.163 93.446C226.601 99.4624 233.856 105.071 241.725 109.048C242.849 109.66 243.973 107.926 242.747 107.314C235.389 103.541 228.747 98.4426 222.615 92.9362C216.586 87.5317 209.842 81.0055 207.083 73.1537C206.878 72.4399 205.959 72.134 205.345 72.7458C183.988 91.4066 152.309 91.2027 131.156 72.3379C130.543 71.8281 129.726 72.032 129.419 72.7458C118.996 97.4229 89.6676 100.89 66.2664 97.8308C65.1423 97.6269 65.1423 99.6663 66.4708 99.8703Z" fill="white"/>
<path d="M36.5302 110.676C44.5009 108.127 55.5373 103.538 54.3111 93.2392C53.2892 84.0617 42.6615 83.8578 35.6105 84.7755C35.9171 85.2854 36.2236 85.7952 36.5302 86.3051C43.0703 73.1507 59.9314 75.7001 71.2744 79.473C82.1064 83.042 93.3472 87.6307 104.69 83.4499C113.07 80.3907 118.588 72.5389 116.34 63.4634C113.581 52.5525 102.238 47.8618 91.7122 48.7795C91.9166 49.3914 92.2231 49.9012 92.4275 50.513C104.997 40.5198 121.96 47.3519 133.814 54.8978C144.339 61.628 155.274 71.0093 168.354 72.0291C178.062 72.8448 186.85 65.6048 186.85 55.6116C186.85 46.0263 177.551 38.9902 168.354 39.806C168.558 40.4178 168.66 41.0297 168.865 41.7435C177.551 35.5232 188.894 37.3587 197.171 43.273C205.551 49.1874 210.864 58.2629 216.076 66.9305C225.58 82.8381 236.616 95.6865 254.193 102.723C255.419 103.232 255.93 101.193 254.704 100.785C243.974 96.5023 234.572 89.7721 227.419 80.6966C220.572 72.131 216.076 61.9339 209.536 53.1643C200.135 40.6218 182.865 29.4049 167.741 40.1119C167.025 40.6218 167.128 42.1514 168.252 42.0494C182.252 40.7238 190.222 57.5491 179.39 66.9305C168.66 76.3119 151.901 64.7891 142.5 58.5688C127.887 48.8815 107.449 36.0331 90.7925 49.2894C90.0772 49.7992 90.6903 51.1249 91.5078 51.0229C98.1501 50.4111 105.303 51.8387 110.106 56.8353C114.807 61.8319 116.34 69.6837 112.354 75.4961C105.61 85.2854 91.5078 83.9598 81.6977 81.0026C67.3912 76.7198 43.7856 67.0325 34.5886 85.4893C34.282 86.1012 34.5886 87.1209 35.5083 87.0189C41.6396 86.3051 52.3695 85.8972 52.1651 94.7688C52.0629 103.436 42.6615 106.699 35.8149 108.943C34.793 109.147 35.3039 111.084 36.5302 110.676Z" fill="white"/>
<path d="M1.58282 73.4572C12.4148 66.1153 19.2615 54.7964 33.6701 54.3885C45.9328 54.0826 57.8889 59.997 70.1516 58.9773C76.3851 58.4674 83.9471 54.3885 81.2902 47.0466C78.0201 37.9711 65.4509 35.8297 57.2758 38.0731C57.5823 38.6849 57.8889 39.1948 58.2977 39.8066C69.9472 29.7114 84.7646 25.3266 100.093 27.1621C114.093 28.8956 127.173 34.708 140.764 38.379C147.509 40.2145 160.589 43.7835 164.472 35.1159C169.173 24.6128 155.071 20.0241 147.713 18.8004C147.713 19.4123 147.713 20.1261 147.713 20.7379C178.881 11.1526 209.333 28.9976 227.829 53.4708C234.471 62.2404 241.522 70.3981 249.8 77.7401C257.259 84.3682 265.843 91.2003 275.654 93.7496C276.88 94.0555 277.493 92.118 276.164 91.8121C264.413 88.753 254.296 79.5756 245.712 71.3159C236.822 62.6483 230.179 52.3491 221.8 43.2736C202.895 22.9813 174.793 10.3368 147.1 18.8004C146.18 19.1063 146.078 20.6359 147.1 20.7379C152.72 21.6556 164.063 23.899 163.041 31.8528C162.019 39.6026 152.925 38.9908 147.202 37.8691C135.859 35.5238 125.129 31.037 113.991 27.9779C93.655 22.3694 73.1151 23.899 56.6626 38.277C55.8451 38.9908 56.6626 40.2145 57.6845 40.0105C63.1005 38.481 68.7209 38.9908 73.626 41.846C76.896 43.7835 80.1661 47.1486 79.4508 51.3294C79.042 54.0826 75.3632 55.8162 72.9107 56.428C63.5093 59.0792 52.3707 54.5925 43.0715 53.1649C35.6117 52.0432 27.8454 51.8392 20.7943 55.3063C12.8236 59.2832 7.50977 66.8291 0.356551 71.7237C-0.563149 72.4375 0.458741 74.273 1.58282 73.4572Z" fill="white"/>
<path d="M567.497 73.7596C535.248 76.7167 508.595 90.9928 483.542 105.779C454.758 122.706 426.506 138.716 392.524 149.219C357.876 159.926 321.096 165.126 283.916 165.126C244.071 165.228 204.225 160.537 164.513 163.903C129.732 166.86 94.5507 176.037 70.5636 196.533C69.3642 197.553 71.3631 198.981 72.4292 197.961C123.602 154.113 208.356 166.35 276.187 167.064C312.434 167.472 348.281 163.597 382.53 154.215C414.513 145.446 443.031 132.291 469.816 116.384C499.134 99.0485 529.251 79.266 567.364 75.697C569.23 75.697 569.23 73.6576 567.497 73.7596Z" fill="white"/>
<path d="M28.1371 185.934C47.7266 170.536 73.9792 160.645 100.898 155.24C131.548 149.122 163.664 149.632 195.114 148.51C225.098 147.388 254.416 144.329 283.2 137.701C310.519 131.481 336.772 122.813 362.225 113.228C392.342 101.909 421.659 89.2645 451.377 77.1299C452.843 76.518 451.51 74.7845 450.044 75.3964C397.006 97.0144 344.634 120.978 286.932 134.642C256.948 141.78 226.431 145.247 195.248 146.369C164.731 147.49 133.281 146.98 103.43 152.589C74.912 157.891 47.0603 168.191 26.4047 184.404C25.0721 185.526 26.9378 186.953 28.1371 185.934Z" fill="white"/>
<path d="M72.4086 154.016C119.45 132.806 176.619 136.273 228.858 130.358C281.23 124.342 332.536 112.819 381.443 97.3195C407.695 89.0598 433.148 79.5764 457.535 68.3596C459.001 67.6458 457.669 65.9123 456.203 66.6261C410.76 87.5302 360.921 102.928 310.148 114.349C284.961 119.957 259.375 124.546 233.389 127.707C207.003 130.97 180.351 131.888 153.832 134.029C125.047 136.477 96.2625 140.759 70.9427 152.18C69.6101 152.894 70.9427 154.73 72.4086 154.016Z" fill="white"/>
<path d="M98.3652 129.947C122.619 127.908 146.873 125.869 170.993 123.829C193.248 121.994 215.636 120.464 237.491 116.997C278.669 110.573 316.382 96.0929 350.896 78.0439C352.362 77.3301 351.03 75.4946 349.564 76.3104C315.182 94.2574 277.869 108.635 236.824 115.06C214.303 118.629 191.249 120.056 168.461 121.994C145.14 123.931 121.686 125.971 98.3652 127.908C96.6328 128.01 96.6328 130.049 98.3652 129.947Z" fill="white"/>
<path d="M165.392 240.587C167.64 236.916 164.779 231.92 160.998 230.696C157.421 229.472 153.027 231.818 152.005 235.489C150.983 239.262 153.538 243.545 157.319 244.564C161.509 245.686 165.698 242.831 166.925 238.854C167.334 237.63 165.392 237.018 164.983 238.344C164.166 240.995 161.611 242.933 158.75 242.831C155.991 242.627 153.742 239.976 153.742 237.222C153.845 234.673 156.297 232.532 158.75 232.532C161.918 232.532 165.494 236.712 163.553 239.67C162.939 240.689 164.677 241.709 165.392 240.587Z" fill="white"/>
<path d="M160.179 241.098C166.821 241.709 172.851 236.611 173.566 229.881C174.281 222.947 168.354 217.032 161.814 215.707C155.683 214.483 148.734 217.746 146.282 223.558C143.829 229.473 146.997 236.101 152.924 238.242C152.719 237.834 152.413 237.427 152.208 237.019C151.698 238.65 151.084 240.282 150.573 242.015C151.084 241.811 151.595 241.607 152.106 241.403C145.668 238.65 139.23 235.897 132.793 233.144C132.179 232.94 131.464 233.042 131.26 233.756C130.647 236.203 129.931 238.14 128.909 240.486C128.603 241.098 128.807 241.811 129.523 242.015C136.063 243.953 142.398 246.604 148.427 249.867C148.325 249.357 148.223 248.949 148.019 248.44C141.581 262.002 135.96 275.87 131.055 290.146C131.566 289.942 132.077 289.738 132.588 289.534C119.508 281.682 107.245 268.528 111.231 252.009C110.618 252.111 110.107 252.314 109.494 252.416C111.844 254.864 114.092 257.413 116.442 259.86C116.953 260.472 118.282 260.064 118.18 259.147C117.362 252.518 116.545 245.992 115.625 239.364C115.523 238.65 114.501 237.834 113.888 238.65C109.596 243.851 104.997 248.541 99.9899 252.926C99.1724 253.64 99.9899 254.864 101.012 254.66C102.545 254.558 103.975 254.456 105.508 254.354C105.304 253.946 104.997 253.538 104.793 253.13C101.012 263.531 102.136 274.646 106.53 284.639C108.88 290.044 112.048 294.939 115.625 299.629C119.508 304.626 124.004 309.011 126.763 314.721C127.377 315.945 129.114 314.823 128.501 313.701C124.004 304.32 115.523 297.488 110.515 288.31C104.691 277.603 102.442 265.265 106.734 253.64C106.939 253.13 106.53 252.518 106.019 252.416C103.975 252.11 102.442 252.111 100.501 252.722C100.807 253.334 101.114 253.844 101.523 254.456C106.53 250.071 111.231 245.278 115.42 240.18C114.807 239.976 114.296 239.67 113.683 239.466C114.501 246.094 115.318 252.62 116.238 259.249C116.851 259.045 117.362 258.739 117.975 258.535C115.625 256.087 113.377 253.538 111.026 251.091C110.515 250.581 109.493 250.785 109.289 251.499C105.099 268.936 117.566 282.906 131.566 291.37C132.179 291.777 132.895 291.37 133.099 290.758C137.902 276.686 143.522 263.021 149.858 249.561C150.063 249.051 149.96 248.44 149.449 248.134C143.216 244.769 136.88 242.117 130.136 240.078C130.34 240.588 130.544 241.098 130.749 241.607C131.873 239.262 132.69 236.917 133.304 234.469C132.793 234.673 132.282 234.877 131.771 235.081C138.209 237.834 144.646 240.588 151.084 243.341C151.698 243.647 152.413 243.443 152.617 242.729C153.128 241.098 153.741 239.466 154.252 237.732C154.457 237.223 154.048 236.611 153.537 236.509C148.223 234.571 145.975 228.249 148.836 223.354C151.595 218.664 157.522 216.726 162.632 218.256C167.23 219.582 171.113 223.355 171.522 228.249C172.135 234.673 166.515 239.874 160.281 239.364C158.851 238.956 158.851 240.996 160.179 241.098Z" fill="white"/>
<path d="M130.954 319.514C135.553 312.886 143.421 311.051 150.779 309.011C157.114 307.176 163.041 304.83 168.56 301.261C179.289 294.225 187.362 283.824 191.859 271.792C191.245 271.893 190.632 271.995 190.019 271.995C191.961 275.157 193.391 278.318 194.209 281.989C194.516 283.11 196.253 282.906 196.253 281.683C196.253 274.545 195.026 267.815 192.574 261.084C192.37 260.371 191.45 259.963 190.837 260.677C186.749 265.265 182.048 268.834 176.428 271.384C175.406 271.893 176.122 273.627 177.246 273.219C180.107 272.301 182.662 272.199 185.727 272.811C185.523 272.301 185.319 271.792 185.114 271.282C175.917 284.946 159.056 291.88 142.808 288.719C143.012 289.229 143.217 289.739 143.421 290.248C150.063 279.643 154.355 268.019 156.297 255.578C156.501 254.252 154.56 253.743 154.355 255.068C152.414 267.305 148.224 278.726 141.684 289.229C141.377 289.739 141.684 290.554 142.297 290.758C159.465 294.123 177.143 286.883 186.851 272.403C187.158 271.893 186.851 271.078 186.238 270.874C182.866 270.16 180.005 270.262 176.735 271.282C177.041 271.893 177.246 272.505 177.552 273.117C183.377 270.466 188.18 266.897 192.37 262.104C191.756 262.002 191.245 261.798 190.632 261.696C192.983 268.223 194.209 274.851 194.209 281.785C194.924 281.683 195.537 281.581 196.253 281.479C195.333 277.706 194.005 274.341 191.859 270.976C191.348 270.16 190.326 270.364 190.019 271.18C184.91 285.048 174.589 296.673 161.202 303.097C150.676 308.093 136.472 307.991 129.319 318.495C128.399 319.616 130.239 320.636 130.954 319.514Z" fill="white"/>
<path d="M154.049 256.088C159.669 257.311 165.392 257.617 171.217 256.904C173.363 256.598 177.144 255.986 177.144 253.131C177.144 250.173 173.567 249.969 171.319 249.664C167.947 249.256 164.677 248.848 161.304 248.44C160.794 248.338 160.18 248.338 159.669 248.236C157.728 248.746 157.013 248.236 157.421 246.706C157.115 244.871 158.954 242.729 159.772 241.2C160.385 240.078 158.648 238.956 158.034 240.18C157.013 242.016 153.64 246.095 154.867 248.44C155.888 250.479 159.669 250.275 161.407 250.479C163.859 250.785 166.414 251.091 168.866 251.397C169.888 251.499 173.261 251.601 173.772 252.009C175.304 253.436 173.772 254.354 172.443 254.66C166.823 255.986 160.18 255.272 154.56 254.048C153.334 253.844 152.721 255.884 154.049 256.088Z" fill="white"/>
<path d="M158.646 166.725C161.61 173.302 162.53 180.245 160.588 187.187C158.953 193.308 155.376 198.789 154.15 205C152.924 211.029 151.187 227.289 162.121 226.924C162.632 226.924 163.245 226.559 163.143 226.011C161.61 214.135 164.88 203.813 168.559 192.577C169.989 188.283 171.216 183.807 171.113 179.331C171.011 174.124 169.07 169.283 167.026 164.533C166.515 163.437 164.573 163.893 165.084 164.99C167.128 169.831 169.172 174.855 169.07 180.062C168.967 185.452 167.128 190.75 165.289 195.865C163.654 200.524 162.121 205.092 161.303 209.933C160.997 211.943 160.792 213.952 160.69 215.962C160.69 216.602 161.099 224.184 160.895 224.275C159.77 224.823 156.705 220.895 156.194 219.981C155.479 218.52 155.581 216.51 155.479 214.866C155.274 211.943 155.479 209.111 155.989 206.188C156.909 201.346 159.157 196.87 160.997 192.211C164.471 183.533 164.676 174.673 160.69 166.086C160.077 165.172 158.135 165.629 158.646 166.725Z" fill="white"/>
<path d="M162.633 173.592C163.859 176.651 166.618 178.996 169.888 179.404C171.217 179.608 171.728 177.671 170.399 177.467C167.844 177.059 165.494 175.529 164.574 172.98C164.063 171.858 162.122 172.47 162.633 173.592Z" fill="white"/>
<path d="M162.123 179.404C163.144 182.565 165.495 185.012 168.663 186.134C169.889 186.542 170.4 184.605 169.174 184.197C166.721 183.279 164.882 181.341 164.064 178.894C163.655 177.569 161.714 178.18 162.123 179.404Z" fill="white"/>
<path d="M161.099 183.789C161.406 187.664 163.961 190.825 167.537 192.049C168.764 192.457 169.275 190.519 168.048 190.111C165.289 189.194 163.348 186.644 163.041 183.789C163.041 182.464 160.997 182.464 161.099 183.789Z" fill="white"/>
<path d="M159.463 188.787C159.259 192.458 161.201 195.823 164.266 197.761C165.39 198.475 166.412 196.639 165.288 196.027C162.733 194.498 161.303 191.744 161.507 188.787C161.507 187.462 159.463 187.462 159.463 188.787Z" fill="white"/>
<path d="M157.727 195.416C158.545 198.781 161.202 204.798 165.596 204.288C166.924 204.084 166.924 202.045 165.596 202.249C162.326 202.656 160.384 197.354 159.771 194.805C159.363 193.581 157.421 194.091 157.727 195.416Z" fill="white"/>
<path d="M155.888 202.348C157.114 206.223 158.749 210.404 162.939 212.035C164.165 212.545 164.676 210.506 163.45 210.098C160.077 208.874 158.851 204.999 157.829 201.838C157.421 200.615 155.479 201.124 155.888 202.348Z" fill="white"/>
<path d="M154.049 209.692C155.582 213.873 158.647 216.932 162.837 218.461C164.063 218.869 164.574 216.932 163.348 216.524C159.874 215.3 157.217 212.649 155.99 209.182C155.582 207.958 153.538 208.468 154.049 209.692Z" fill="white"/>
<path d="M155.887 219.171C158.237 220.293 159.668 223.76 162.836 222.638C164.062 222.23 163.551 220.191 162.325 220.7C161.098 221.108 160.077 220.089 159.259 219.273C158.544 218.559 157.828 217.845 156.909 217.437C155.785 216.826 154.661 218.559 155.887 219.171Z" fill="white"/>
<path d="M151.801 123.014C147.509 111.185 145.67 98.6429 150.064 86.5083C150.473 85.2846 148.531 84.7748 148.122 85.9984C143.728 98.439 145.568 111.389 149.86 123.524C150.268 124.748 152.21 124.238 151.801 123.014Z" fill="white"/>
<path d="M159.363 121.993C155.276 110.98 154.765 99.4572 157.933 88.1384C158.239 86.9147 156.298 86.3029 155.991 87.6285C152.823 99.2533 153.334 111.184 157.422 122.503C157.933 123.726 159.874 123.217 159.363 121.993Z" fill="white"/>
<path d="M149.245 85.3868C149.654 88.7519 151.595 91.6071 154.559 93.2386C155.683 93.8505 156.705 92.1169 155.581 91.5051C153.332 90.2814 151.697 88.0381 151.289 85.3868C151.187 84.0612 149.143 84.0612 149.245 85.3868Z" fill="white"/>
<path d="M147.1 91.5075C148.224 95.0765 150.574 98.1357 153.947 99.9711C155.071 100.583 156.093 98.8495 154.969 98.2376C152.107 96.6061 150.064 94.0568 149.144 90.9976C148.633 89.672 146.691 90.2838 147.1 91.5075Z" fill="white"/>
<path d="M145.874 99.3579C147.203 102.723 149.962 105.272 153.539 106.088C154.867 106.394 155.378 104.456 154.05 104.151C151.188 103.437 148.838 101.499 147.816 98.848C147.305 97.6244 145.363 98.1342 145.874 99.3579Z" fill="white"/>
<path d="M146.59 108.637C148.736 111.594 151.801 113.532 155.378 114.042C156.706 114.246 157.217 112.308 155.889 112.104C152.823 111.696 150.166 110.167 148.327 107.617C147.612 106.496 145.772 107.515 146.59 108.637Z" fill="white"/>
<path d="M148.632 117.204C149.757 118.937 151.085 120.365 152.822 121.384C154.253 122.302 156.297 123.424 158.034 122.812C159.26 122.302 158.749 120.365 157.523 120.875C156.297 121.384 154.457 120.059 153.538 119.345C152.311 118.427 151.289 117.408 150.472 116.082C149.757 115.062 147.917 116.082 148.632 117.204Z" fill="white"/>
<path d="M185.215 13.8028C185.113 13.8028 185.113 13.8027 185.011 13.9047C185.42 14.4146 185.828 14.9244 186.135 15.4343C190.427 7.17459 171.829 3.19771 171.318 13.5988C171.215 14.9244 173.259 14.9244 173.361 13.5988C173.77 6.15489 186.85 9.72388 184.398 14.4146C183.989 15.1284 184.704 16.2501 185.522 15.9442C185.624 15.9442 185.624 15.9442 185.726 15.8422C186.953 15.2304 186.442 13.2929 185.215 13.8028Z" fill="white"/>
<path d="M192.268 17.8829C195.742 10.7449 192.575 1.87336 184.195 0.241814C175.816 -1.28776 166.823 4.62659 164.881 12.6824C164.575 14.008 166.516 14.5178 166.823 13.1922C168.254 7.27785 173.159 3.50491 178.983 2.38322C187.669 0.649706 194.516 8.39954 190.429 16.7612C189.918 18.0869 191.757 19.1066 192.268 17.8829Z" fill="white"/>
<path d="M166.821 12.0693C168.967 11.4575 171.011 11.0496 173.259 10.9476C174.588 10.9476 174.588 8.9082 173.259 8.9082C170.909 9.01017 168.559 9.41807 166.31 10.0299C165.084 10.4378 165.595 12.3752 166.821 12.0693Z" fill="white"/>
<path d="M170.909 6.76765C172.749 6.46174 174.486 7.17555 175.712 8.50119C176.632 9.5209 178.063 7.99132 177.143 7.07357C175.406 5.13611 172.953 4.32034 170.398 4.8302C169.172 5.03414 169.683 6.9716 170.909 6.76765Z" fill="white"/>
<path d="M176.836 3.20052C178.88 3.50643 180.617 5.4439 180.106 7.68728C179.8 9.01291 181.843 9.52277 182.048 8.19714C182.661 5.03602 180.617 1.67095 177.347 1.26306C176.121 1.05912 175.508 2.99657 176.836 3.20052Z" fill="white"/>
<path d="M183.991 2.68653C186.852 4.11413 184.604 7.4792 183.378 9.21272C182.56 10.2324 184.4 11.2522 185.115 10.2324C187.057 7.58118 188.998 2.89047 185.013 0.95301C183.786 0.34118 182.765 2.0747 183.991 2.68653Z" fill="white"/>
<path d="M188.795 5.03172C190.124 8.09087 188.489 11.354 185.321 12.2717C184.094 12.6796 184.605 14.6171 185.832 14.2092C190.43 12.8835 192.372 8.19284 190.532 4.012C190.021 2.89031 188.182 3.91003 188.795 5.03172Z" fill="white"/>
<path d="M185.932 14.8215C188.18 16.657 191.245 16.555 193.391 14.7195C194.413 13.8018 192.88 12.3742 191.961 13.2919C190.735 14.4136 188.691 14.5156 187.362 13.3939C186.34 12.5781 184.91 14.0057 185.932 14.8215Z" fill="white"/>
</svg>
