<svg width="150" height="96" viewBox="0 0 150 96" fill="none" xmlns="http://www.w3.org/2000/svg">
<path fill-rule="evenodd" clip-rule="evenodd" d="M74.9971 23.2727C81.4663 23.2727 86.7107 18.0629 86.7107 11.6364C86.7107 5.20978 81.4663 0 74.9971 0C68.5278 0 63.2834 5.20978 63.2834 11.6364C63.2834 18.0629 68.5278 23.2727 74.9971 23.2727ZM72.0686 93L72.0686 68.3636C72.079 66.7552 73.3861 65.4545 74.997 65.4545C76.6078 65.4545 77.9149 66.7552 77.9253 68.3636L77.9254 93C77.9254 94.6569 79.2685 96 80.9254 96H88.1033C89.7601 96 91.1033 94.6568 91.1033 93V65.3817C91.1033 65.3757 91.1033 65.3696 91.1033 65.3636V58.1818H94.9621C96.7889 58.1818 98.1916 56.5629 97.9316 54.7548L94.4018 30.2093C94.1894 28.7326 92.9242 27.6363 91.4323 27.6363H88.1033H84.3162H65.679H61.8907H58.5628C57.0709 27.6363 55.8057 28.7326 55.5934 30.2093L52.0636 54.7548C51.8036 56.5629 53.2063 58.1818 55.033 58.1818H58.8907V61.1818V65.3636V93C58.8907 94.6569 60.2339 96 61.8907 96H69.0686C70.7254 96 72.0686 94.6568 72.0686 93Z" fill="#613A93"/>
<path fill-rule="evenodd" clip-rule="evenodd" d="M130.203 26.5263C135.796 26.5263 140.329 22.002 140.329 16.421C140.329 10.84 135.796 6.31574 130.203 6.31574C124.611 6.31574 120.078 10.84 120.078 16.421C120.078 22.002 124.611 26.5263 130.203 26.5263ZM127.672 86.6842V65.6743C127.68 64.2831 128.81 63.1578 130.203 63.1578C131.599 63.1578 132.731 64.2872 132.735 65.6818V86.6842C132.735 88.341 134.078 89.6842 135.735 89.6842H141.126C142.783 89.6842 144.126 88.341 144.126 86.6842V62.7029C144.126 62.6967 144.126 62.6904 144.126 62.6842V56.8421H146.995C148.821 56.8421 150.223 55.2245 149.964 53.417L147.026 32.8907C146.815 31.4131 145.549 30.3158 144.056 30.3158H141.126H138.726H121.68H119.281H116.35C114.858 30.3158 113.592 31.4131 113.38 32.8907L110.442 53.417C110.183 55.2245 111.586 56.8421 113.412 56.8421H116.281V59.8421V62.6842V86.6842C116.281 88.341 117.624 89.6842 119.281 89.6842H124.672C126.329 89.6842 127.672 88.341 127.672 86.6842Z" fill="#DDD4E8"/>
<path fill-rule="evenodd" clip-rule="evenodd" d="M19.792 26.5263C25.3842 26.5263 29.9176 22.002 29.9176 16.421C29.9176 10.84 25.3842 6.31574 19.792 6.31574C14.1997 6.31574 9.66633 10.84 9.66633 16.421C9.66633 22.002 14.1997 26.5263 19.792 26.5263ZM17.2606 86.6842L17.2606 65.6842C17.2633 64.2885 18.3956 63.1578 19.792 63.1578C21.1876 63.1578 22.3194 64.2872 22.3234 65.6818V86.6842C22.3234 88.341 23.6665 89.6842 25.3234 89.6842H30.7147C32.3716 89.6842 33.7147 88.341 33.7147 86.6842L33.7147 62.6842L33.7147 59.8421C33.7147 59.8405 33.7147 59.8389 33.7147 59.8372V56.8421H36.5833C38.4092 56.8421 39.8117 55.2245 39.553 53.417L36.6147 32.8907C36.4032 31.4131 35.1376 30.3158 33.645 30.3158H30.7147H28.3148H11.269H8.86922H5.93881C4.44618 30.3158 3.18059 31.4131 2.96908 32.8907L0.030837 53.417C-0.227907 55.2245 1.17458 56.8421 3.00057 56.8421H5.86922V59.8421V62.6842V86.6842C5.86922 88.341 7.21237 89.6842 8.86923 89.6842H14.2606C15.9174 89.6842 17.2606 88.341 17.2606 86.6842Z" fill="#DDD4E8"/>
</svg>
