<svg width="172" height="110" viewBox="0 0 172 110" fill="none" xmlns="http://www.w3.org/2000/svg">
<path fill-rule="evenodd" clip-rule="evenodd" d="M125.381 14.8847C124.212 13.7108 122.309 13.7043 121.132 14.8702L114.043 21.8916C112.866 23.0576 112.859 24.9544 114.029 26.1283L122.565 34.6987C107.346 38.8293 96.1429 52.7103 96.1429 69.2178C96.1429 82.3131 103.193 93.7554 113.706 99.9884H94C92.8954 99.9884 92 100.884 92 101.988V107.106C92 108.21 92.8954 109.106 94 109.106H170C171.105 109.106 172 108.21 172 107.106V101.988C172 100.884 171.105 99.9884 170 99.9884H150.294C158.277 95.2553 164.263 87.5185 166.682 78.335H169C170.105 78.335 171 77.4396 171 76.335V71.2178C171 70.1132 170.105 69.2178 169 69.2178H153.571C152.467 69.2178 151.571 70.1132 151.571 71.2178V76.335C151.571 77.4396 152.467 78.335 153.571 78.335H156.192C152.499 88.0627 143.068 94.9885 132 94.9885C117.706 94.9885 106.143 83.4373 106.143 69.2178C106.143 55.2351 117.324 43.8326 131.288 43.4567L138.489 50.6863L138.288 50.8851C137.503 51.6624 137.499 52.9269 138.278 53.7095L141.899 57.3442C142.678 58.1268 143.946 58.1311 144.731 57.3538L156.485 45.7126C157.269 44.9353 157.274 43.6707 156.494 42.8881L152.874 39.2535C152.095 38.4709 150.826 38.4665 150.042 39.2438L149.841 39.4427L125.381 14.8847Z" fill="#613A93"/>
<ellipse rx="3.5" ry="3.50014" transform="matrix(-1 0 0 1 161.5 64.5019)" fill="#DDD4E8"/>
<circle cx="56" cy="33" r="24.5" stroke="#DDD4E8" stroke-width="7"/>
<rect x="52" width="8" height="8" rx="1" fill="#DDD4E8"/>
<rect x="61.8382" y="17.081" width="6" height="19" rx="1" transform="rotate(32 61.8382 17.081)" fill="#DDD4E8"/>
<rect x="71.5667" y="2.69156" width="6" height="4" rx="1" transform="rotate(32.887 71.5667 2.69156)" fill="#DDD4E8"/>
<rect y="30" width="23" height="5" rx="1" fill="#DDD4E8"/>
<rect x="13" y="38" width="10" height="5" rx="1" fill="#DDD4E8"/>
<rect x="10" y="22" width="13" height="5" rx="1" fill="#DDD4E8"/>
</svg>
