<svg width="178" height="119" viewBox="0 0 178 119" fill="none" xmlns="http://www.w3.org/2000/svg">
<path d="M141.776 114H147.759V112.679H143.957V112.619L145.462 111.089C147.158 109.462 147.626 108.669 147.626 107.685C147.626 106.223 146.438 105.153 144.682 105.153C142.952 105.153 141.724 106.227 141.724 107.885H143.229C143.229 106.994 143.791 106.436 144.661 106.436C145.491 106.436 146.109 106.943 146.109 107.766C146.109 108.494 145.666 109.014 144.805 109.888L141.776 112.858V114ZM151.057 112.807H149.693L149.663 113.284C149.591 114.439 149.288 115.615 149.165 116.131H150.205C150.409 115.594 150.882 114.349 151.001 113.276L151.057 112.807ZM155.696 114.119C157.542 114.119 158.828 112.866 158.828 111.132C158.828 109.453 157.661 108.243 156.076 108.243C155.368 108.243 154.742 108.524 154.418 108.908H154.367L154.618 106.594H158.373V105.273H153.31L152.854 109.773L154.282 110.007C154.576 109.683 155.13 109.466 155.654 109.47C156.613 109.474 157.303 110.182 157.299 111.17C157.303 112.146 156.63 112.841 155.696 112.841C154.908 112.841 154.273 112.342 154.218 111.626H152.684C152.726 113.075 153.992 114.119 155.696 114.119ZM163.452 114.119C165.336 114.132 166.601 112.837 166.597 111.111C166.601 109.462 165.425 108.268 163.895 108.268C162.958 108.268 162.131 108.724 161.713 109.474H161.654C161.658 107.612 162.331 106.496 163.542 106.496C164.292 106.496 164.799 106.935 164.961 107.625H166.516C166.328 106.193 165.191 105.128 163.542 105.128C161.445 105.128 160.12 106.875 160.12 109.884C160.12 113.084 161.777 114.111 163.452 114.119ZM163.444 112.841C162.51 112.841 161.828 112.07 161.824 111.158C161.833 110.241 162.54 109.474 163.465 109.474C164.39 109.474 165.067 110.207 165.063 111.145C165.067 112.099 164.368 112.841 163.444 112.841ZM172.703 112.364C172.708 113.378 173.351 114.243 174.549 114.243C175.742 114.243 176.398 113.378 176.394 112.364V111.903C176.398 110.881 175.759 110.024 174.549 110.024C173.368 110.024 172.708 110.889 172.703 111.903V112.364ZM168.267 107.369C168.272 108.384 168.915 109.24 170.117 109.24C171.306 109.24 171.962 108.392 171.958 107.369V106.909C171.962 105.886 171.323 105.03 170.117 105.03C168.941 105.03 168.272 105.886 168.267 106.909V107.369ZM168.651 114H169.721L175.721 105.273H174.651L168.651 114ZM173.816 111.903C173.82 111.452 174.012 110.996 174.549 110.996C175.111 110.996 175.277 111.452 175.273 111.903V112.364C175.277 112.815 175.094 113.263 174.549 113.263C174.003 113.263 173.82 112.811 173.816 112.364V111.903ZM169.388 106.909C169.392 106.462 169.576 106.001 170.117 106.001C170.679 106.001 170.841 106.457 170.837 106.909V107.369C170.841 107.821 170.662 108.268 170.117 108.268C169.571 108.268 169.392 107.821 169.388 107.369V106.909Z" fill="black"/>
<circle cx="59.5" cy="59.5" r="59.5" fill="#DDD4E8"/>
<circle cx="123.5" cy="109.5" r="9.5" fill="#613A93"/>
<path d="M42.9363 55.1278C41.0442 55.1193 39.7871 56.4148 39.7871 58.1364C39.7871 59.7898 40.9632 60.9787 42.4931 60.9787C43.4348 60.9787 44.253 60.5227 44.6749 59.7727H44.7346C44.7303 61.6392 44.0527 62.7514 42.8468 62.7514C42.0925 62.7514 41.5854 62.3168 41.4277 61.6222H39.8723C40.0513 63.0668 41.1934 64.1193 42.8468 64.1193C44.9391 64.1193 46.2644 62.3722 46.2686 59.3679C46.2644 56.1676 44.611 55.1406 42.9363 55.1278ZM42.9405 56.4062C43.8738 56.4062 44.5598 57.1818 44.5598 58.0938C44.5598 59.0014 43.8439 59.777 42.9235 59.777C41.9945 59.777 41.3212 59.044 41.3212 58.1023C41.3212 57.152 42.0158 56.4062 42.9405 56.4062ZM47.7729 64H49.4135L53.1209 56.6236V55.2727H47.1763V56.5938H51.4846V56.6534L47.7729 64ZM54.8244 62.8068H53.4608L53.4309 63.2841C53.3585 64.4389 53.0559 65.6151 52.9324 66.1307H53.9721C54.1767 65.5938 54.6497 64.3494 54.769 63.2756L54.8244 62.8068ZM56.3777 62.3807H60.541V64H62.0495V62.3807H63.166V61.081H62.0495V55.2727H60.0808L56.3777 61.1236V62.3807ZM60.5581 61.081H57.997V61.0128L60.4899 57.0625H60.5581V61.081ZM64.3699 62.3807H68.5332V64H70.0417V62.3807H71.1582V61.081H70.0417V55.2727H68.073L64.3699 61.1236V62.3807ZM68.5502 61.081H65.9892V61.0128L68.4821 57.0625H68.5502V61.081ZM77.1859 62.3636C77.1902 63.3778 77.8336 64.2429 79.0311 64.2429C80.2243 64.2429 80.8805 63.3778 80.8762 62.3636V61.9034C80.8805 60.8807 80.2413 60.0241 79.0311 60.0241C77.8507 60.0241 77.1902 60.8892 77.1859 61.9034V62.3636ZM72.7498 57.3693C72.7541 58.3835 73.3975 59.2401 74.5993 59.2401C75.7882 59.2401 76.4444 58.392 76.4402 57.3693V56.9091C76.4444 55.8864 75.8052 55.0298 74.5993 55.0298C73.4231 55.0298 72.7541 55.8864 72.7498 56.9091V57.3693ZM73.1333 64H74.2029L80.2029 55.2727H79.1333L73.1333 64ZM78.2981 61.9034C78.3024 61.4517 78.4941 60.9957 79.0311 60.9957C79.5936 60.9957 79.7598 61.4517 79.7555 61.9034V62.3636C79.7598 62.8153 79.5765 63.2628 79.0311 63.2628C78.4856 63.2628 78.3024 62.8111 78.2981 62.3636V61.9034ZM73.8706 56.9091C73.8748 56.4616 74.0581 56.0014 74.5993 56.0014C75.1618 56.0014 75.3237 56.4574 75.3194 56.9091V57.3693C75.3237 57.821 75.1447 58.2685 74.5993 58.2685C74.0538 58.2685 73.8748 57.821 73.8706 57.3693V56.9091Z" fill="black"/>
</svg>
