<svg width="176" height="137" viewBox="0 0 176 137" fill="none" xmlns="http://www.w3.org/2000/svg">
<ellipse cx="71.9697" cy="56.9822" rx="14.5455" ry="14.5487" fill="#DDD4E8"/>
<ellipse cx="71.9697" cy="56.9823" rx="8.48485" ry="8.48672" fill="#613A93"/>
<ellipse cx="39.5" cy="98.5218" rx="5.5" ry="5.50122" fill="#DDD4E8"/>
<ellipse cx="29.5" cy="23.5051" rx="5.5" ry="5.50122" fill="#DDD4E8"/>
<ellipse cx="12" cy="33.0072" rx="12" ry="12.0027" fill="#DDD4E8"/>
<path fill-rule="evenodd" clip-rule="evenodd" d="M85.9979 30.6525C100.441 37.9381 106.242 55.5511 98.9568 69.9915C91.6713 84.4319 74.0571 90.2338 59.6137 82.9482C45.1702 75.6625 39.3693 58.0496 46.6548 43.6091C53.9403 29.1687 71.5545 23.3669 85.9979 30.6525ZM113.276 69.0954C119.171 49.7795 110.5 28.4516 91.8537 19.046C71.0005 8.52722 45.5677 16.9032 35.0479 37.7543C24.528 58.6055 32.9048 84.0358 53.758 94.5546C72.4042 103.96 94.712 98.2587 106.746 82.0397L151.008 104.367C152.488 105.113 154.292 104.519 155.038 103.039L158.866 95.452C159.612 93.9727 159.018 92.1687 157.539 91.4225L113.276 69.0954Z" fill="#613A93"/>
</svg>
